<svg width="16" height="20" viewBox="0 0 16 20" fill="none" xmlns="http://www.w3.org/2000/svg">
<g clip-path="url(#clip0_354_198)">
<path d="M3.65916 6.60432L3.68995 6.6222L5.91252 6.64236L5.94416 6.62513C6.68381 6.21802 7.14831 5.44164 7.15613 4.59809C7.16315 3.79827 6.89544 3.11667 6.63644 2.45777C6.45923 2.0073 6.2767 1.54218 6.18108 1.03945C6.10203 0.624278 6.11756 0.444521 6.11756 0.444521L6.13926 0.266846L5.96224 0.294441C5.14185 0.423632 4.28176 0.956967 3.60285 1.75867C2.88957 2.60029 2.4922 3.59385 2.48349 4.55638C2.47586 5.39955 2.92653 6.18402 3.65916 6.60432ZM3.15157 3.87158C3.16433 3.84036 3.17558 3.80699 3.18726 3.77068C3.31221 3.36611 3.73354 3.21229 3.81834 3.79897C3.90355 4.38669 4.3827 4.26154 4.49551 3.76008C4.63595 3.12962 5.01821 3.29111 5.08322 3.53993C5.1489 3.78852 5.07748 4.23876 5.41534 4.26451C5.61868 4.28 5.68027 4.00867 5.80437 3.61412C5.87533 3.38758 6.25692 3.18173 6.48089 3.81277C6.53955 4.06475 6.57547 4.32144 6.57312 4.59277C6.56799 5.18156 6.25585 5.74168 5.75824 6.05784L3.85441 6.04084C3.36231 5.71532 3.06081 5.15031 3.06612 4.56132C3.06847 4.335 3.09715 4.10383 3.15157 3.87158Z" fill="#969696"/>
<path d="M5.30676 7.28553L4.2811 7.27616C3.96575 7.27362 3.66254 7.40046 3.44305 7.62739C3.22421 7.85451 3.10778 8.16134 3.12115 8.47688L3.18321 9.90495L6.35701 9.93301L6.44458 8.50644C6.46389 8.19109 6.35319 7.88257 6.13817 7.65182C5.92296 7.42065 5.6223 7.28849 5.30676 7.28553Z" fill="#969696"/>
<path d="M3.57731 18.9359C3.60283 19.5268 4.08664 19.9949 4.67817 19.9997L4.68603 20C5.27779 20.0051 5.76989 19.5461 5.80624 18.9554L6.32893 10.4405L3.20801 10.4131L3.57731 18.9359Z" fill="#969696"/>
<path d="M14.5843 7.56023C13.727 6.29384 12.5173 5.28645 11.0898 4.68366C10.1411 4.28333 9.09464 4.06152 8.00014 4.06152C7.92618 4.06152 7.85226 4.06152 7.7783 4.06364C7.79996 4.23766 7.81314 4.41826 7.81083 4.60334C7.8 5.59967 7.29298 6.52227 6.4707 7.06833C6.52273 7.11188 6.57292 7.15759 6.61859 7.20773C6.63154 7.22068 6.64472 7.23594 6.65343 7.24893C6.91223 7.43185 7.07989 7.73637 7.07989 8.07804C7.07989 8.0997 7.07989 8.12159 7.07777 8.14113C7.09943 8.27371 7.10818 8.40864 7.09943 8.5457L7.02335 9.79467L6.75348 14.1703C6.85145 14.216 6.94492 14.2725 7.0363 14.3335C7.45193 14.6142 7.78038 15.01 7.97844 15.4758C8.1089 15.7868 8.18075 16.1285 8.18075 16.4874C8.18287 16.6334 8.15908 16.7834 8.11996 16.9487C8.08277 17.1142 8.03286 17.2925 7.98715 17.4905C7.94572 17.6754 7.92618 17.8539 7.92618 18.0236C7.92406 18.3368 7.99802 18.6241 8.13291 18.8612C8.26573 19.1007 8.45481 19.2856 8.66155 19.416C8.80095 19.5031 8.94672 19.5683 9.0946 19.614C9.29051 19.675 9.49065 19.7033 9.6842 19.7033C9.86697 19.7033 10.0433 19.6795 10.2107 19.6272C11.8534 19.1181 13.283 18.1192 14.3057 16.7942C15.3284 15.467 15.9397 13.809 15.9397 12.001C15.9397 10.3582 15.4393 8.82639 14.5843 7.56023ZM9.01624 8.58717C8.50927 8.58717 8.09599 8.17369 8.09599 7.66668C8.09599 7.15759 8.50927 6.74643 9.01624 6.74643C9.52553 6.74643 9.93673 7.15759 9.93673 7.66668C9.93673 8.17366 9.52553 8.58717 9.01624 8.58717ZM11.2792 8.20854C11.7318 8.20854 12.0993 8.57422 12.0993 9.02658C12.0993 9.47917 11.7318 9.84697 11.2792 9.84697C10.8266 9.84697 10.459 9.47917 10.459 9.02658C10.459 8.57418 10.8266 8.20854 11.2792 8.20854ZM12.7479 15.0929C12.652 15.3169 12.4954 15.5083 12.2974 15.6411C12.0972 15.776 11.8559 15.8544 11.5989 15.8544C11.427 15.8544 11.2639 15.8196 11.1139 15.7565C10.8897 15.6627 10.7004 15.504 10.5655 15.306C10.4305 15.1059 10.3523 14.8666 10.3523 14.6076C10.3523 14.4378 10.3872 14.2725 10.4503 14.1225C10.5459 13.9004 10.7025 13.709 10.9027 13.5741C11.1007 13.4413 11.3423 13.3609 11.5989 13.3631C11.7708 13.3631 11.9361 13.3979 12.0843 13.461C12.3084 13.5545 12.4975 13.7132 12.6325 13.9113C12.7674 14.1093 12.8458 14.3509 12.8458 14.6076C12.8458 14.7795 12.8109 14.9448 12.7479 15.0929ZM12.3911 11.8356C12.0385 11.8356 11.7513 11.5485 11.7513 11.1939C11.7513 10.8414 12.0386 10.5541 12.3911 10.5541C12.7457 10.5541 13.0328 10.8414 13.0328 11.1939C13.0328 11.5485 12.7457 11.8356 12.3911 11.8356Z" fill="#969696"/>
<path d="M3.12527 7.03804C2.8554 6.85084 2.62041 6.62476 2.42682 6.36572C2.42023 6.37231 2.41152 6.38102 2.40493 6.38738C0.975583 7.82355 0.0899409 9.80793 0.0595703 11.9946V12.0751C0.0595703 12.6581 0.146443 13.1585 0.303075 13.5807C0.459899 14.0027 0.688296 14.3444 0.962402 14.599C1.14517 14.7709 1.34766 14.9037 1.55864 14.9972C1.83721 15.1234 2.13086 15.182 2.4158 15.182C2.53331 15.182 2.64654 15.1712 2.75959 15.1516L2.55944 10.552L2.47018 8.50458C2.45064 8.0129 2.63336 7.52759 2.97503 7.17509C3.02286 7.12518 3.073 7.07947 3.12527 7.03804Z" fill="#969696"/>
</g>
<defs>
<clipPath id="clip0_354_198">
<rect width="16" height="20" fill="white"/>
</clipPath>
</defs>
</svg>
