<svg width="20" height="20" viewBox="0 0 20 20" fill="none" xmlns="http://www.w3.org/2000/svg">
<g clip-path="url(#clip0_354_211)">
<path d="M10.0001 7.14264C8.2798 7.14264 6.87589 8.54655 6.87589 10.2669C6.87589 11.9872 8.2798 13.3911 10.0001 13.3911C11.7204 13.3911 13.1243 11.9872 13.1243 10.2669C13.1243 8.54655 11.7204 7.14264 10.0001 7.14264ZM19.3704 10.2669C19.3704 8.97311 19.3821 7.69108 19.3095 6.39967C19.2368 4.89967 18.8946 3.56842 17.7978 2.47155C16.6985 1.37233 15.3696 1.03248 13.8696 0.959828C12.5759 0.887172 11.2939 0.89889 10.0025 0.89889C8.7087 0.89889 7.42667 0.887172 6.13527 0.959828C4.63527 1.03248 3.30402 1.37467 2.20714 2.47155C1.10792 3.57077 0.76808 4.89967 0.695424 6.39967C0.622767 7.69342 0.634486 8.97545 0.634486 10.2669C0.634486 11.5583 0.622767 12.8426 0.695424 14.134C0.76808 15.634 1.11027 16.9653 2.20714 18.0622C3.30636 19.1614 4.63527 19.5012 6.13527 19.5739C7.42902 19.6465 8.71105 19.6348 10.0025 19.6348C11.2962 19.6348 12.5782 19.6465 13.8696 19.5739C15.3696 19.5012 16.7009 19.159 17.7978 18.0622C18.897 16.963 19.2368 15.634 19.3095 14.134C19.3845 12.8426 19.3704 11.5606 19.3704 10.2669ZM10.0001 15.0739C7.33995 15.0739 5.19308 12.927 5.19308 10.2669C5.19308 7.6067 7.33995 5.45983 10.0001 5.45983C12.6603 5.45983 14.8071 7.6067 14.8071 10.2669C14.8071 12.927 12.6603 15.0739 10.0001 15.0739ZM15.004 6.38561C14.3829 6.38561 13.8814 5.88405 13.8814 5.26295C13.8814 4.64186 14.3829 4.1403 15.004 4.1403C15.6251 4.1403 16.1267 4.64186 16.1267 5.26295C16.1269 5.41043 16.0979 5.5565 16.0416 5.69279C15.9852 5.82908 15.9026 5.95292 15.7983 6.0572C15.694 6.16149 15.5701 6.24418 15.4339 6.30053C15.2976 6.35688 15.1515 6.38579 15.004 6.38561Z" fill="#969696"/>
</g>
<defs>
<clipPath id="clip0_354_211">
<rect width="20" height="20" fill="white"/>
</clipPath>
</defs>
</svg>
