<svg width="18" height="20" viewBox="0 0 18 20" fill="none" xmlns="http://www.w3.org/2000/svg">
<g clip-path="url(#clip0_354_204)">
<mask id="mask0_354_204" style="mask-type:luminance" maskUnits="userSpaceOnUse" x="0" y="4" width="18" height="17">
<path d="M9 10.6666C9.38302 10.6666 9.76229 10.5911 10.1162 10.4446C10.47 10.298 10.7916 10.0831 11.0624 9.81231C11.3332 9.54147 11.5481 9.21994 11.6946 8.86607C11.8412 8.51221 11.9167 8.13293 11.9167 7.74991C11.9167 7.36689 11.8412 6.98762 11.6946 6.63375C11.5481 6.27989 11.3332 5.95836 11.0624 5.68752C10.7916 5.41668 10.47 5.20184 10.1162 5.05526C9.76229 4.90869 9.38302 4.83325 9 4.83325C8.22645 4.83325 7.48459 5.14054 6.93761 5.68752C6.39062 6.2345 6.08333 6.97636 6.08333 7.74991C6.08333 8.52346 6.39062 9.26533 6.93761 9.81231C7.48459 10.3593 8.22645 10.6666 9 10.6666ZM1.5 19.3332V19.8332H16.5V19.3332C16.5 17.4666 16.5 16.5332 16.1367 15.8199C15.8171 15.1927 15.3072 14.6828 14.68 14.3632C13.9667 13.9999 13.0333 13.9999 11.1667 13.9999H6.83333C4.96667 13.9999 4.03333 13.9999 3.32 14.3632C2.69282 14.6828 2.18291 15.1927 1.86333 15.8199C1.5 16.5332 1.5 17.4666 1.5 19.3332Z" fill="white"/>
<path fill-rule="evenodd" clip-rule="evenodd" d="M6.34868 5.09835C7.05194 4.39509 8.00576 4 9.00033 4C9.49278 4 9.98042 4.097 10.4354 4.28546C10.8904 4.47391 11.3038 4.75013 11.652 5.09835C12.0002 5.44657 12.2764 5.85997 12.4649 6.31494C12.6533 6.76991 12.7503 7.25755 12.7503 7.75C12.7503 8.24246 12.6533 8.7301 12.4649 9.18507C12.2764 9.64004 12.0002 10.0534 11.652 10.4016C11.3038 10.7499 10.8904 11.0261 10.4354 11.2145C9.98042 11.403 9.49278 11.5 9.00033 11.5C8.00576 11.5 7.05194 11.1049 6.34868 10.4016C5.64541 9.69839 5.25033 8.74457 5.25033 7.75C5.25033 6.75544 5.64541 5.80161 6.34868 5.09835ZM9.00033 5.66667C8.44779 5.66667 7.91789 5.88616 7.52719 6.27686C7.13649 6.66757 6.91699 7.19747 6.91699 7.75C6.91699 8.30254 7.13649 8.83244 7.52719 9.22314C7.91789 9.61384 8.44779 9.83334 9.00033 9.83334C9.27391 9.83334 9.54482 9.77945 9.79758 9.67475C10.0503 9.57006 10.28 9.4166 10.4735 9.22314C10.6669 9.02969 10.8204 8.80002 10.9251 8.54726C11.0298 8.2945 11.0837 8.02359 11.0837 7.75C11.0837 7.47642 11.0298 7.20551 10.9251 6.95275C10.8204 6.69999 10.6669 6.47032 10.4735 6.27686C10.28 6.08341 10.0503 5.92995 9.79758 5.82525C9.54482 5.72056 9.27391 5.66667 9.00033 5.66667ZM6.79797 13.1667H11.2027C12.1057 13.1667 12.8341 13.1666 13.424 13.2148C14.0314 13.2645 14.5649 13.3693 15.0585 13.6208C15.8425 14.0202 16.48 14.6577 16.8795 15.4417C17.1309 15.9353 17.2358 16.4689 17.2855 17.0763C17.3337 17.6662 17.3337 18.3946 17.3337 19.2976V19.8333C17.3337 20.2936 16.9606 20.6667 16.5003 20.6667H1.50033C1.04009 20.6667 0.666993 20.2936 0.666993 19.8333L0.666992 19.2977C0.666984 18.3946 0.666977 17.6662 0.715177 17.0763C0.764807 16.4689 0.869659 15.9354 1.1211 15.4418C1.52057 14.6578 2.15802 14.0203 2.94199 13.6208C3.43565 13.3694 3.96923 13.2645 4.57663 13.2148C5.16652 13.1666 5.89491 13.1667 6.79797 13.1667ZM2.60622 16.1982C2.84588 15.7279 3.22825 15.3456 3.69855 15.1059L2.60622 16.1982ZM3.69855 15.1059C3.91822 14.994 4.20809 14.9172 4.71236 14.876C5.22638 14.834 5.88658 14.8333 6.83366 14.8333H11.167C12.1141 14.8333 12.7743 14.834 13.2883 14.876C13.7925 14.9172 14.0823 14.994 14.302 15.1058M14.302 15.1058C14.7723 15.3455 15.1548 15.7279 15.3944 16.1982L14.302 15.1058ZM15.3944 16.1982C15.5063 16.4179 15.5831 16.7078 15.6243 17.212C15.6612 17.6635 15.6662 18.2277 15.6669 19H2.33376C2.33443 18.2277 2.33942 17.6635 2.37631 17.212C2.4175 16.7078 2.49436 16.4179 2.60622 16.1982" fill="white"/>
</mask>
<g mask="url(#mask0_354_204)">
<path d="M-1 2.33325H19V20.3332H-1V2.33325Z" fill="#969696"/>
</g>
</g>
<defs>
<clipPath id="clip0_354_204">
<rect width="18" height="20" fill="white"/>
</clipPath>
</defs>
</svg>
