<svg width="16" height="20" viewBox="0 0 16 20" fill="none" xmlns="http://www.w3.org/2000/svg">
<g clip-path="url(#clip0_354_220)">
<path d="M5.81248 8.5L4.25586 6.25L5.81248 4H3.66795L2.11133 6.25L3.66795 8.5H5.81248Z" fill="#969696"/>
<path d="M9.65283 8.5L8.09667 6.25L9.65283 4H7.5078L5.95117 6.25L7.5078 8.5H9.65283Z" fill="#969696"/>
<path d="M0.416031 6.25L1.97266 4H1.25C0.559563 4 0 4.55956 0 5.25V8.5H1.97266L0.416031 6.25Z" fill="#969696"/>
<path d="M15.1411 4.06836L13.6318 6.24998L15.1885 8.49998H16V5.24998C16 4.69727 15.6387 4.23339 15.1411 4.06836Z" fill="#969696"/>
<path d="M13.4931 8.5L11.9365 6.25L13.4931 4H11.3486L9.79199 6.25L11.3486 8.5H13.4931Z" fill="#969696"/>
<path d="M0 18.75C0 19.4405 0.559563 20 1.25 20H14.75C15.4404 20 16 19.4405 16 18.75V9.5H0V18.75ZM6.70312 14.8653V12.9678C6.70312 12.9404 6.71778 12.9155 6.74025 12.9023C6.76369 12.8892 6.7925 12.8897 6.81544 12.9033L9.99512 14.8012C10.0176 14.8144 10.0312 14.8389 10.0312 14.8653C10.0312 14.8916 10.0176 14.916 9.99512 14.9287L6.81544 16.8271C6.7925 16.8408 6.76369 16.8413 6.74025 16.8281C6.71778 16.8145 6.70312 16.79 6.70312 16.7627V14.8653Z" fill="#969696"/>
</g>
<defs>
<clipPath id="clip0_354_220">
<rect width="16" height="20" fill="white"/>
</clipPath>
</defs>
</svg>
