<svg width="20" height="20" viewBox="0 0 20 20" fill="none" xmlns="http://www.w3.org/2000/svg">
<path d="M19.0445 14.0969L16.71 11.6961L19.0445 9.70386V14.0969Z" fill="#969696"/>
<path d="M3.29346 11.6961L0.956055 14.0997V9.70386L3.29346 11.6961Z" fill="#969696"/>
<path d="M19.0449 16.2796V18.4901C19.0449 19.0246 18.6068 19.4583 18.0669 19.4583H1.93397C1.39411 19.4583 0.956055 19.0246 0.956055 18.4901V16.2796L4.45224 12.6868L8.44594 16.092C8.86142 16.4447 9.41253 16.6405 10.0005 16.6405C10.5884 16.6405 11.1423 16.4447 11.5578 16.092L15.5486 12.6868L19.0449 16.2796Z" fill="#969696"/>
<path d="M19.0449 6.95899V7.92715L10.5148 15.2022C10.2406 15.4373 9.76018 15.4373 9.48602 15.2022L0.956055 7.92715V6.95899C0.956055 6.4246 1.39407 5.99365 1.93397 5.99365H18.0669C18.6068 5.99365 19.0449 6.4246 19.0449 6.95899Z" fill="#969696"/>
</svg>
