<svg width="183" height="105" viewBox="0 0 183 105" fill="none" xmlns="http://www.w3.org/2000/svg">
<g clip-path="url(#clip0_316_714)">
<path d="M75.3125 105C75.2085 105 75.1075 105 75.0066 105C66.9524 105.053 52.9586 102.857 49.6502 87.5004L35.6296 67.7686C35.5494 67.656 35.5286 67.5077 35.5791 67.3773C35.6296 67.2469 35.7395 67.149 35.8731 67.1164L46.8764 64.4513C47.013 64.4187 47.1585 64.4572 47.2624 64.5521L51.8568 68.8151C54.6098 63.9207 58.4824 61.6113 59.3793 61.1251H59.3823C59.4625 61.0243 59.5813 60.968 59.706 60.968H90.3131C90.4408 60.968 90.5596 61.0243 90.6397 61.1222C91.2337 61.4453 93.0126 62.4947 94.9312 64.475C98.7504 62.6489 105.474 60.6241 109.664 66.1411C111.824 68.9841 112.51 72.1353 111.639 75.251C110.434 79.5822 106.127 83.8007 100.642 86.0507C97.9663 102.468 83.7794 104.997 75.3095 104.997L75.3125 105ZM75.0066 104.158C75.1046 104.158 75.2026 104.158 75.3036 104.158C83.5448 104.158 97.3664 101.7 99.8492 85.6861C99.8729 85.5379 99.971 85.4163 100.111 85.36C105.468 83.2285 109.676 79.1701 110.832 75.0257C111.639 72.1324 111.022 69.3131 108.996 66.651C106.935 63.9385 102.84 61.5135 95.0262 65.3674C94.8599 65.4504 94.6609 65.4118 94.5332 65.2784C92.4721 63.0847 90.5566 62.0263 90.1378 61.8099H59.8872C59.317 62.1064 55.1355 64.4098 52.3438 69.6896C52.2814 69.8052 52.1716 69.8853 52.0409 69.909C51.9102 69.9297 51.7795 69.8912 51.6845 69.8023L46.8585 65.3258L36.678 67.7894L50.3897 87.0854C50.4223 87.1328 50.4461 87.1862 50.458 87.2425C53.609 102.092 67.187 104.211 75.0095 104.161L75.0066 104.158ZM100.651 80.098C100.583 80.098 100.514 80.0832 100.455 80.0476C100.321 79.9765 100.238 79.8401 100.232 79.6919C100.078 75.3578 98.9285 71.4891 96.8081 68.1925C96.7368 68.0828 96.722 67.9465 96.7665 67.8249C96.8111 67.7034 96.9091 67.6056 97.0338 67.567C100.078 66.5917 102.525 67.1787 104.111 69.2686C105.287 70.8161 105.726 72.4644 105.415 74.169C105.017 76.339 103.362 78.4764 100.877 80.0358C100.808 80.0773 100.731 80.101 100.654 80.101L100.651 80.098ZM97.8119 68.2133C99.7066 71.3379 100.791 74.9309 101.037 78.9152C102.985 77.5337 104.265 75.7757 104.586 74.0148C104.853 72.5533 104.467 71.1274 103.44 69.7726C102.16 68.0858 100.268 67.5641 97.8119 68.2103V68.2133Z" fill="#A1908D"/>
<path d="M90.1263 60.8968C86.5239 54.2 75.1673 54.7484 75.1673 54.7484C75.1673 54.7484 63.8107 54.2 60.2083 60.8968C60.2083 60.8968 59.3856 62.2457 63.8909 63.1291C68.3931 64.0125 72.5836 64.2675 75.1703 64.2675C77.757 64.2675 81.9445 64.0155 86.4497 63.1291C90.9519 62.2457 90.1323 60.8968 90.1323 60.8968H90.1263Z" fill="#504341"/>
<path d="M75.1647 56.5539C77.2641 56.5539 78.966 54.782 78.966 52.5963C78.966 50.4106 77.2641 48.6387 75.1647 48.6387C73.0652 48.6387 71.3633 50.4106 71.3633 52.5963C71.3633 54.782 73.0652 56.5539 75.1647 56.5539Z" fill="#504341"/>
<path d="M77.1182 73.748C63.1214 77.2195 56.8907 71.6492 56.8907 71.6492L54.2208 74.7797H44.8184L52.7003 85.8729L52.828 86.4717C55.4414 98.7893 66.0942 101.374 74.5671 101.374H75.2116C84.1003 101.374 95.1332 98.5402 97.2121 85.0339C97.7793 81.3461 97.6902 77.9814 96.9507 74.9694C96.9507 74.9694 91.112 70.2736 77.1152 73.7451L77.1182 73.748Z" fill="#C55A41"/>
<path d="M121.862 89.9995C120.368 87.6901 117.455 88.9352 116.377 89.6141C116.808 88.0725 117.277 86.6911 117.568 85.8699C117.704 85.4845 117.416 85.0784 117.006 85.0784H96.2919C95.8821 85.0784 95.594 85.4815 95.7306 85.8669C96.4018 87.7553 98.0085 92.5934 97.9224 95.5757C97.8155 99.3436 99.336 101.875 101.703 102.359V103.98C101.703 104.306 101.97 104.573 102.297 104.573H110.999C111.325 104.573 111.592 104.306 111.592 103.98V102.359C112.929 102.086 113.995 101.158 114.651 99.726C115.364 99.6727 116.237 99.5126 117.315 99.1805C122.495 97.5916 123.775 92.9551 121.859 89.9935L121.862 89.9995ZM119.638 95.2733C118.925 96.5392 117.704 97.1706 116.641 97.4878C116 97.6775 115.373 97.1884 115.382 96.5214C115.382 96.3583 115.382 96.1923 115.379 96.0233C115.34 94.719 115.628 93.0588 116.018 91.4461C116.08 91.1853 116.246 90.96 116.481 90.8295C117.146 90.4619 117.992 90.1655 118.83 90.3404C120.609 90.7169 121.096 92.6823 119.638 95.2704V95.2733Z" fill="#504341"/>
<path d="M130.002 9.12756C130.328 9.22835 130.655 9.33211 130.991 9.40326C133.212 9.88054 142.383 12.5575 147.972 24.9788C153.315 36.8606 140.043 51.4697 132.924 51.6297C125.805 51.7898 103.149 48.7216 105.578 30.4691C107.93 12.7858 124.537 7.44964 130.005 9.12459L130.002 9.12756Z" fill="white"/>
<path d="M131.552 52.2583C131.552 52.2583 131.54 52.2583 131.534 52.2583C131.261 52.2494 130.973 52.2405 130.676 52.2228C130.329 52.205 130.061 51.9085 130.079 51.5617C130.097 51.2148 130.394 50.948 130.741 50.9658C131.03 50.9806 131.306 50.9925 131.57 50.9984C131.918 51.0073 132.194 51.2978 132.182 51.6476C132.173 51.9886 131.891 52.2613 131.552 52.2613V52.2583ZM134.071 52.1279C133.777 52.1279 133.515 51.9233 133.453 51.6269C133.382 51.286 133.601 50.951 133.943 50.8798C134.186 50.8294 134.439 50.7613 134.694 50.6812C135.027 50.5775 135.38 50.7613 135.487 51.0933C135.591 51.4253 135.407 51.7781 135.074 51.8848C134.778 51.9797 134.483 52.0567 134.198 52.116C134.154 52.1249 134.112 52.1309 134.068 52.1309L134.071 52.1279ZM128.187 52.0152C128.164 52.0152 128.14 52.0152 128.116 52.0123C127.837 51.9797 127.555 51.9471 127.267 51.9085C126.922 51.8641 126.679 51.5469 126.723 51.2C126.768 50.8561 127.086 50.613 127.433 50.6575C127.712 50.6931 127.988 50.7286 128.259 50.7583C128.606 50.7968 128.853 51.1111 128.814 51.455C128.778 51.7751 128.505 52.0152 128.187 52.0152ZM124.849 51.5113C124.811 51.5113 124.772 51.5083 124.731 51.4994C124.454 51.4461 124.172 51.3927 123.893 51.3334C123.552 51.2623 123.332 50.9273 123.403 50.5863C123.474 50.2454 123.807 50.0261 124.151 50.0972C124.425 50.1535 124.698 50.2069 124.968 50.2603C125.31 50.3255 125.535 50.6545 125.47 50.9955C125.414 51.2978 125.149 51.5083 124.849 51.5083V51.5113ZM137.192 50.8917C136.972 50.8917 136.755 50.7761 136.64 50.5686C136.467 50.2662 136.577 49.8808 136.88 49.7118C137.109 49.5843 137.343 49.445 137.578 49.2968C137.872 49.113 138.264 49.199 138.448 49.4954C138.635 49.7889 138.546 50.1802 138.249 50.364C137.997 50.5211 137.744 50.6723 137.498 50.8116C137.4 50.868 137.293 50.8917 137.189 50.8917H137.192ZM121.562 50.7583C121.508 50.7583 121.452 50.7524 121.395 50.7375C121.122 50.6634 120.846 50.5863 120.57 50.5033C120.234 50.4055 120.044 50.0527 120.142 49.7207C120.24 49.3857 120.594 49.196 120.926 49.2938C121.194 49.3739 121.458 49.448 121.725 49.5191C122.061 49.611 122.26 49.9579 122.168 50.2929C122.09 50.5745 121.838 50.7583 121.559 50.7583H121.562ZM118.348 49.7326C118.274 49.7326 118.2 49.7207 118.129 49.694C117.861 49.5932 117.594 49.4924 117.327 49.3857C117.003 49.2553 116.846 48.8877 116.976 48.5646C117.107 48.2414 117.475 48.0843 117.799 48.2147C118.054 48.3185 118.313 48.4163 118.568 48.5112C118.895 48.6327 119.061 48.9944 118.939 49.3205C118.844 49.5755 118.604 49.7296 118.348 49.7296V49.7326ZM139.966 48.9825C139.782 48.9825 139.6 48.9025 139.476 48.7513C139.256 48.4815 139.295 48.0843 139.565 47.8649C139.776 47.693 139.984 47.5181 140.191 47.3343C140.453 47.106 140.854 47.1297 141.082 47.3936C141.311 47.6544 141.287 48.0547 141.023 48.2829C140.803 48.4756 140.584 48.6624 140.364 48.8403C140.248 48.9351 140.105 48.9825 139.966 48.9825ZM115.26 48.3896C115.165 48.3896 115.067 48.3689 114.975 48.3215C114.716 48.191 114.461 48.0576 114.208 47.9183C113.903 47.7523 113.79 47.3669 113.959 47.0615C114.125 46.7562 114.511 46.6436 114.817 46.8125C115.058 46.943 115.301 47.0704 115.548 47.195C115.86 47.3521 115.984 47.7315 115.827 48.0428C115.717 48.2622 115.494 48.3896 115.263 48.3896H115.26ZM142.425 46.6821C142.27 46.6821 142.116 46.6258 141.991 46.5101C141.736 46.273 141.724 45.8728 141.964 45.6208C142.152 45.4222 142.336 45.2206 142.52 45.0131C142.751 44.7522 143.149 44.7285 143.411 44.9567C143.672 45.188 143.696 45.5852 143.467 45.8461C143.274 46.0625 143.081 46.276 142.885 46.4835C142.76 46.6169 142.594 46.6821 142.425 46.6821ZM112.361 46.6702C112.236 46.6702 112.112 46.6347 111.999 46.5576C111.761 46.3916 111.527 46.2196 111.295 46.0447C111.019 45.8342 110.965 45.437 111.176 45.1613C111.387 44.8856 111.785 44.8322 112.061 45.0427C112.278 45.2087 112.498 45.3688 112.724 45.523C113.009 45.7216 113.08 46.1159 112.881 46.4005C112.759 46.5754 112.563 46.6702 112.361 46.6702ZM109.777 44.518C109.614 44.518 109.454 44.4557 109.329 44.3312C109.124 44.1237 108.922 43.9103 108.729 43.6968C108.497 43.4389 108.518 43.0387 108.777 42.8075C109.035 42.5762 109.436 42.597 109.668 42.8549C109.846 43.0535 110.033 43.2492 110.223 43.4419C110.469 43.6879 110.466 44.0881 110.223 44.3342C110.098 44.4557 109.938 44.518 109.777 44.518ZM144.578 44.097C144.447 44.097 144.317 44.0585 144.204 43.9755C143.922 43.768 143.862 43.3737 144.07 43.095C144.233 42.8757 144.391 42.6504 144.548 42.4251C144.747 42.1375 145.139 42.0663 145.427 42.265C145.715 42.4636 145.787 42.8549 145.588 43.1425C145.424 43.3796 145.258 43.6138 145.089 43.8421C144.964 44.0111 144.774 44.1 144.581 44.1L144.578 44.097ZM107.672 41.9063C107.464 41.9063 107.259 41.8025 107.137 41.6128C106.98 41.3667 106.831 41.1147 106.689 40.8598C106.52 40.5544 106.629 40.172 106.932 40.003C107.238 39.8341 107.621 39.9438 107.791 40.2461C107.921 40.4803 108.058 40.7116 108.203 40.9369C108.391 41.2304 108.304 41.6187 108.01 41.8055C107.906 41.8737 107.788 41.9033 107.672 41.9033V41.9063ZM146.404 41.2719C146.3 41.2719 146.194 41.2452 146.096 41.1918C145.793 41.0228 145.683 40.6375 145.852 40.3351C145.986 40.0949 146.116 39.8548 146.241 39.6117C146.401 39.3034 146.782 39.1819 147.093 39.342C147.402 39.502 147.524 39.8815 147.364 40.1928C147.23 40.4477 147.093 40.7027 146.954 40.9517C146.838 41.1592 146.624 41.2748 146.401 41.2748L146.404 41.2719ZM106.214 38.8884C105.952 38.8884 105.706 38.7253 105.617 38.4615C105.522 38.1858 105.436 37.9042 105.355 37.6255C105.26 37.2905 105.459 36.9437 105.795 36.8488C106.131 36.7539 106.478 36.9526 106.573 37.2876C106.644 37.5425 106.724 37.8004 106.811 38.0524C106.923 38.3815 106.748 38.7402 106.419 38.8528C106.35 38.8765 106.282 38.8884 106.214 38.8884ZM147.851 38.2332C147.773 38.2332 147.696 38.2184 147.622 38.1888C147.298 38.0613 147.138 37.6967 147.263 37.3735C147.361 37.1186 147.456 36.8636 147.545 36.6087C147.661 36.2796 148.02 36.1047 148.35 36.2203C148.679 36.3359 148.854 36.6947 148.739 37.0237C148.644 37.2964 148.546 37.5662 148.439 37.833C148.341 38.082 148.103 38.2332 147.851 38.2332ZM105.492 35.6185C105.174 35.6185 104.901 35.3784 104.865 35.0553C104.836 34.7677 104.809 34.4772 104.794 34.1867C104.773 33.8398 105.041 33.5404 105.388 33.5197C105.739 33.4989 106.035 33.7657 106.056 34.1126C106.071 34.3823 106.095 34.6521 106.125 34.9189C106.163 35.2658 105.911 35.577 105.566 35.6126C105.543 35.6126 105.519 35.6156 105.498 35.6156L105.492 35.6185ZM148.825 35.0167C148.78 35.0167 148.739 35.0108 148.694 35.0019C148.353 34.9308 148.136 34.5958 148.207 34.2549C148.263 33.991 148.314 33.7242 148.359 33.4574C148.415 33.1135 148.742 32.8823 149.083 32.9386C149.428 32.9949 149.659 33.321 149.603 33.662C149.555 33.9436 149.502 34.2311 149.443 34.5157C149.38 34.8122 149.119 35.0167 148.825 35.0167ZM105.453 32.2597C105.436 32.2597 105.421 32.2597 105.403 32.2597C105.055 32.2331 104.794 31.9307 104.824 31.5838C104.845 31.2992 104.874 31.0117 104.91 30.7212C104.952 30.3743 105.263 30.1283 105.611 30.1698C105.958 30.2113 106.205 30.5225 106.163 30.8694C106.131 31.1421 106.104 31.4149 106.083 31.6817C106.056 32.0107 105.78 32.2627 105.453 32.2627V32.2597ZM149.205 31.6846H149.196C148.849 31.6787 148.569 31.3941 148.572 31.0473V30.8546C148.572 30.65 148.569 30.4455 148.56 30.2409C148.546 29.8941 148.816 29.6006 149.166 29.5858C149.511 29.5709 149.808 29.8407 149.823 30.1905C149.832 30.4129 149.838 30.6322 149.838 30.8546V31.065C149.832 31.4119 149.549 31.6876 149.205 31.6876V31.6846ZM105.946 28.9365C105.902 28.9365 105.86 28.9306 105.816 28.9217C105.474 28.8506 105.257 28.5156 105.329 28.1747C105.388 27.893 105.45 27.6114 105.519 27.3357C105.602 26.9977 105.94 26.7902 106.282 26.8703C106.621 26.9533 106.828 27.2912 106.748 27.6321C106.683 27.896 106.624 28.1628 106.567 28.4326C106.505 28.729 106.243 28.9336 105.949 28.9336L105.946 28.9365ZM148.872 28.3436C148.581 28.3436 148.32 28.142 148.255 27.8486C148.198 27.5877 148.133 27.3268 148.059 27.0689C147.964 26.7339 148.16 26.3871 148.495 26.2922C148.831 26.1973 149.178 26.393 149.273 26.728C149.353 27.0096 149.425 27.2942 149.487 27.5817C149.561 27.9227 149.345 28.2577 149.006 28.3318C148.961 28.3407 148.914 28.3466 148.869 28.3466L148.872 28.3436ZM106.84 25.6963C106.772 25.6963 106.704 25.6845 106.635 25.6607C106.306 25.5481 106.131 25.1894 106.243 24.8603C106.338 24.5876 106.436 24.3178 106.537 24.051C106.662 23.7249 107.027 23.5619 107.351 23.6864C107.678 23.8109 107.841 24.1755 107.716 24.4987C107.618 24.7506 107.526 25.0086 107.437 25.2694C107.348 25.5303 107.102 25.6934 106.84 25.6934V25.6963ZM147.762 25.1775C147.527 25.1775 147.304 25.0471 147.194 24.8248C147.073 24.5728 146.948 24.3267 146.823 24.0836C146.666 23.7724 146.787 23.3929 147.099 23.2358C147.411 23.0787 147.791 23.2002 147.949 23.5115C148.076 23.7605 148.204 24.0154 148.329 24.2734C148.483 24.5876 148.353 24.9641 148.038 25.1153C147.949 25.1597 147.854 25.1805 147.762 25.1805V25.1775ZM108.147 22.6014C108.052 22.6014 107.954 22.5806 107.865 22.5332C107.553 22.3761 107.428 21.9966 107.586 21.6883C107.716 21.4304 107.85 21.1754 107.987 20.9235C108.153 20.6181 108.539 20.5055 108.845 20.6744C109.151 20.8404 109.264 21.2258 109.094 21.5312C108.964 21.7683 108.836 22.0114 108.714 22.2545C108.604 22.4739 108.382 22.6014 108.15 22.6014H108.147ZM146.173 22.216C145.956 22.216 145.745 22.1063 145.629 21.9047C145.487 21.6646 145.344 21.4274 145.202 21.1962C145.017 20.8997 145.11 20.5114 145.407 20.3276C145.703 20.1438 146.093 20.2357 146.277 20.5321C146.425 20.7723 146.571 21.0154 146.719 21.2644C146.897 21.5638 146.796 21.9492 146.496 22.127C146.395 22.1863 146.286 22.213 146.176 22.213L146.173 22.216ZM109.864 19.7139C109.739 19.7139 109.614 19.6784 109.504 19.6013C109.216 19.4027 109.145 19.0113 109.344 18.7238C109.51 18.4866 109.677 18.2524 109.849 18.0242C110.057 17.7455 110.455 17.6892 110.734 17.8967C111.013 18.1042 111.069 18.4985 110.861 18.7801C110.698 18.9965 110.541 19.2189 110.383 19.4442C110.262 19.622 110.063 19.7169 109.864 19.7169V19.7139ZM144.331 19.4027C144.135 19.4027 143.942 19.3137 143.821 19.1418C143.657 18.9165 143.491 18.6971 143.328 18.4807C143.117 18.205 143.167 17.8078 143.446 17.5973C143.723 17.3868 144.121 17.4372 144.331 17.7159C144.504 17.9382 144.673 18.1694 144.845 18.4036C145.05 18.6853 144.988 19.0795 144.706 19.2841C144.593 19.3641 144.465 19.4027 144.334 19.4027H144.331ZM111.969 17.0933C111.815 17.0933 111.663 17.037 111.542 16.9273C111.286 16.6901 111.268 16.2929 111.506 16.0379C111.702 15.8245 111.901 15.617 112.103 15.4154C112.349 15.1693 112.747 15.1664 112.997 15.4095C113.243 15.6555 113.246 16.0528 113.003 16.3018C112.813 16.4945 112.623 16.6931 112.435 16.8947C112.311 17.0281 112.141 17.0963 111.972 17.0963L111.969 17.0933ZM142.208 16.7939C142.036 16.7939 141.866 16.7257 141.742 16.5893C141.555 16.3848 141.365 16.1862 141.177 15.9935C140.934 15.7445 140.94 15.3442 141.189 15.1012C141.439 14.8581 141.84 14.861 142.083 15.113C142.282 15.3146 142.478 15.5221 142.677 15.7385C142.912 15.9964 142.894 16.3937 142.639 16.6279C142.517 16.7376 142.365 16.7939 142.214 16.7939H142.208ZM114.419 14.7869C114.235 14.7869 114.054 14.7069 113.929 14.5557C113.71 14.2859 113.748 13.8887 114.018 13.6693C114.241 13.4855 114.47 13.3076 114.696 13.1327C114.972 12.9222 115.37 12.9726 115.581 13.2513C115.791 13.53 115.741 13.9242 115.462 14.1347C115.245 14.3007 115.031 14.4697 114.817 14.6446C114.698 14.7395 114.559 14.7869 114.416 14.7869H114.419ZM139.776 14.4727C139.633 14.4727 139.491 14.4252 139.372 14.3274C139.158 14.1495 138.944 13.9806 138.733 13.8175C138.457 13.6041 138.407 13.2098 138.617 12.9341C138.831 12.6584 139.226 12.608 139.502 12.8185C139.725 12.9904 139.951 13.1713 140.177 13.358C140.444 13.5804 140.483 13.9776 140.26 14.2444C140.135 14.3956 139.954 14.4727 139.773 14.4727H139.776ZM117.163 12.8363C116.953 12.8363 116.745 12.7295 116.626 12.5369C116.442 12.2404 116.537 11.8521 116.834 11.6683C117.08 11.5171 117.33 11.3688 117.576 11.2295C117.879 11.0576 118.265 11.1643 118.437 11.4667C118.61 11.769 118.503 12.1544 118.2 12.3264C117.965 12.4598 117.728 12.5991 117.493 12.7444C117.389 12.8066 117.276 12.8392 117.163 12.8392V12.8363ZM137.032 12.525C136.922 12.525 136.809 12.4954 136.708 12.4361C136.47 12.2938 136.233 12.1574 135.998 12.0329C135.692 11.8669 135.579 11.4845 135.746 11.1791C135.912 10.8738 136.295 10.7611 136.601 10.9271C136.85 11.0635 137.1 11.2058 137.355 11.357C137.655 11.5349 137.75 11.9232 137.572 12.2226C137.453 12.4212 137.245 12.528 137.029 12.528L137.032 12.525ZM120.142 11.268C119.899 11.268 119.67 11.1287 119.563 10.8916C119.423 10.5744 119.566 10.2008 119.884 10.0615C120.151 9.94291 120.415 9.83322 120.68 9.7265C121.003 9.59606 121.372 9.75318 121.502 10.0763C121.633 10.3994 121.476 10.767 121.152 10.8975C120.899 10.9983 120.647 11.105 120.395 11.2147C120.311 11.2503 120.225 11.268 120.139 11.268H120.142ZM134.014 11.0338C133.937 11.0338 133.857 11.019 133.78 10.9894C133.518 10.8856 133.263 10.7878 133.013 10.6989C132.687 10.5803 132.514 10.2216 132.633 9.89251C132.752 9.56642 133.114 9.39447 133.441 9.51305C133.702 9.60792 133.973 9.70871 134.249 9.8184C134.573 9.94884 134.73 10.3135 134.599 10.6366C134.501 10.8827 134.264 11.0338 134.014 11.0338ZM123.314 10.1297C123.038 10.1297 122.782 9.94587 122.705 9.66721C122.613 9.33222 122.809 8.98537 123.145 8.89051C123.43 8.81047 123.709 8.73932 123.985 8.67706C124.324 8.59702 124.665 8.8075 124.742 9.14842C124.823 9.48637 124.612 9.82729 124.27 9.90437C124.009 9.96662 123.745 10.0318 123.477 10.106C123.421 10.1208 123.364 10.1297 123.308 10.1297H123.314ZM130.813 9.98738C130.756 9.98738 130.7 9.98145 130.643 9.96366L130.424 9.90437C130.213 9.84508 130.014 9.79172 129.827 9.73836L129.969 9.12174L130.148 8.51698L130.171 8.52291C130.355 8.57627 130.551 8.62963 130.759 8.68596L130.982 8.74821C131.318 8.84011 131.517 9.18696 131.422 9.52491C131.344 9.80358 131.089 9.98738 130.813 9.98738ZM126.625 9.51898C126.302 9.51898 126.025 9.26997 125.996 8.9409C125.966 8.59406 126.224 8.28871 126.572 8.25907C126.869 8.23535 127.166 8.21756 127.454 8.21164C127.801 8.20274 128.092 8.47844 128.098 8.82825C128.107 9.1751 127.828 9.46562 127.481 9.47155C127.219 9.47748 126.952 9.4923 126.679 9.51602C126.661 9.51602 126.643 9.51602 126.625 9.51602V9.51898Z" fill="#A1908D"/>
<path d="M103.285 7.3729C105.183 10.8266 108.212 18.6736 101.269 25.1333C99.4956 26.7815 97.2683 27.8488 94.8835 28.2697C93.3273 28.5454 91.3464 28.7441 89.1933 28.6077C82.7666 28.1986 77.6882 22.9692 77.4655 16.5451C77.3199 12.3355 78.1337 7.90947 80.6551 5.59715C86.6422 0.103917 94.049 -1.33683 100.396 3.84216C101.583 4.81156 102.549 6.02701 103.288 7.3729H103.285Z" fill="white"/>
<path d="M90.5983 29.2806C90.3666 29.2806 90.1291 29.2776 89.8885 29.2687C89.541 29.2568 89.2648 28.9663 89.2767 28.6195C89.2886 28.2726 89.5707 28.0029 89.9271 28.0088C90.1558 28.0147 90.3785 28.0177 90.6013 28.0177H90.7646C91.1121 28.0177 91.3942 28.2963 91.3972 28.6432C91.3972 28.99 91.118 29.2746 90.7705 29.2776H90.6013L90.5983 29.2806ZM93.3246 29.1234C93.0068 29.1234 92.7336 28.8863 92.698 28.5632C92.6594 28.2163 92.9088 27.905 93.2533 27.8665C93.5384 27.8339 93.8146 27.7983 94.0819 27.7598C94.4264 27.7094 94.7471 27.9465 94.7976 28.2904C94.8481 28.6343 94.6105 28.9545 94.266 29.0049C93.9869 29.0464 93.6958 29.0849 93.3959 29.1175C93.3721 29.1175 93.3483 29.1205 93.3246 29.1205V29.1234ZM87.3612 28.9841C87.3166 28.9841 87.2721 28.9782 87.2275 28.9693C86.9365 28.907 86.6425 28.8329 86.3544 28.7499C86.0188 28.6551 85.8258 28.3052 85.9208 27.9702C86.0158 27.6353 86.3663 27.4426 86.7019 27.5374C86.9602 27.6115 87.2275 27.6768 87.4889 27.7361C87.8304 27.8102 88.0472 28.1452 87.973 28.4831C87.9106 28.7796 87.6463 28.9811 87.3552 28.9811L87.3612 28.9841ZM96.6775 28.4505C96.4132 28.4505 96.1637 28.2815 96.0776 28.0147C95.9677 27.6827 96.1489 27.327 96.4815 27.2202C96.7399 27.1372 96.9953 27.0424 97.2448 26.9416C97.5685 26.8111 97.9367 26.9682 98.0674 27.2914C98.1981 27.6145 98.0407 27.9821 97.717 28.1125C97.4408 28.2222 97.1586 28.326 96.8735 28.4209C96.8082 28.4416 96.7429 28.4535 96.6775 28.4535V28.4505ZM84.1538 27.822C84.0558 27.822 83.9548 27.7983 83.8597 27.7479C83.5954 27.6086 83.3341 27.4574 83.0787 27.3003C82.7817 27.1165 82.6896 26.7281 82.8738 26.4317C83.0579 26.1352 83.4469 26.0433 83.7439 26.2271C83.9726 26.3694 84.2102 26.5028 84.4478 26.6303C84.7566 26.7933 84.8754 27.1728 84.7121 27.4811C84.5992 27.6945 84.3795 27.8161 84.1538 27.8161V27.822ZM99.7513 26.9653C99.5464 26.9653 99.3474 26.8675 99.2256 26.6837C99.0326 26.3931 99.1098 26.0018 99.4009 25.8091C99.6266 25.6609 99.8463 25.5008 100.06 25.3348C100.336 25.1214 100.731 25.1717 100.945 25.4474C101.159 25.7231 101.109 26.1174 100.832 26.3309C100.598 26.5147 100.351 26.6896 100.102 26.8556C99.9948 26.9267 99.8731 26.9623 99.7513 26.9623V26.9653ZM81.3829 25.8358C81.2285 25.8358 81.0711 25.7795 80.9493 25.6639C80.7325 25.4593 80.5217 25.2429 80.3197 25.0265C80.0821 24.7715 80.0999 24.3713 80.3554 24.1371C80.6108 23.9029 81.0117 23.9178 81.2463 24.1727C81.4275 24.3713 81.6205 24.564 81.8165 24.7508C82.0689 24.9909 82.0808 25.3882 81.8403 25.6431C81.7155 25.7735 81.5492 25.8388 81.3829 25.8388V25.8358ZM102.311 24.7093C102.163 24.7093 102.011 24.6559 101.89 24.5492C101.628 24.318 101.607 23.9178 101.839 23.6598C102.023 23.4553 102.198 23.2448 102.368 23.0343C102.585 22.7616 102.982 22.7171 103.256 22.9335C103.529 23.15 103.573 23.5472 103.357 23.8199C103.173 24.0482 102.98 24.2794 102.781 24.5018C102.656 24.6411 102.484 24.7123 102.311 24.7123V24.7093ZM79.2476 23.1796C79.0338 23.1796 78.8229 23.0699 78.7071 22.8743C78.5527 22.6193 78.4071 22.3555 78.2705 22.0887C78.1131 21.7774 78.2349 21.3979 78.5467 21.2408C78.8585 21.0837 79.2387 21.2052 79.3961 21.5165C79.5179 21.7566 79.6515 21.9938 79.7911 22.225C79.9693 22.5244 79.8742 22.9098 79.5743 23.0907C79.4733 23.1529 79.3605 23.1796 79.2506 23.1796H79.2476ZM104.26 21.9108C104.161 21.9108 104.063 21.8871 103.971 21.8396C103.663 21.6796 103.541 21.3001 103.701 20.9918C103.826 20.7517 103.942 20.5056 104.049 20.2596C104.185 19.9394 104.559 19.7912 104.877 19.9305C105.198 20.0669 105.346 20.4374 105.207 20.7576C105.088 21.0303 104.96 21.3031 104.821 21.5699C104.708 21.7863 104.488 21.9108 104.26 21.9108ZM77.9052 20.0491C77.629 20.0491 77.3736 19.8653 77.2964 19.5836C77.2192 19.2991 77.1479 19.0026 77.0885 18.7121C77.0202 18.3712 77.24 18.0391 77.5815 17.971C77.9231 17.9028 78.2557 18.1221 78.324 18.4631C78.3774 18.7269 78.4398 18.9937 78.5111 19.2516C78.6031 19.5866 78.4042 19.9335 78.0686 20.0254C78.0122 20.0402 77.9557 20.0491 77.9023 20.0491H77.9052ZM105.382 18.6943C105.343 18.6943 105.302 18.6913 105.26 18.6824C104.919 18.6172 104.693 18.2852 104.761 17.9443C104.812 17.6804 104.856 17.4136 104.889 17.1439C104.931 16.797 105.245 16.5539 105.593 16.5954C105.94 16.6369 106.184 16.9512 106.142 17.298C106.107 17.5945 106.059 17.8939 106.003 18.1844C105.943 18.4868 105.679 18.6943 105.385 18.6943H105.382ZM77.4568 16.6695C77.1123 16.6695 76.8302 16.3938 76.8272 16.05C76.8272 15.9047 76.8242 15.7565 76.8242 15.6112C76.8242 15.4659 76.8242 15.3207 76.8272 15.1754C76.8331 14.8315 77.1153 14.5558 77.4568 14.5558H77.4687C77.8161 14.5618 78.0953 14.8493 78.0894 15.1962C78.0894 15.3355 78.0864 15.4719 78.0864 15.6112C78.0864 15.7505 78.0864 15.8899 78.0894 16.0292C78.0953 16.376 77.8161 16.6636 77.4687 16.6695H77.4568ZM105.572 15.291C105.245 15.291 104.966 15.0391 104.943 14.707C104.922 14.4402 104.895 14.1675 104.859 13.8948C104.815 13.5509 105.058 13.2337 105.403 13.1862C105.747 13.1418 106.065 13.3849 106.113 13.7287C106.151 14.0252 106.184 14.3246 106.205 14.6151C106.231 14.962 105.97 15.2644 105.623 15.291C105.608 15.291 105.59 15.291 105.575 15.291H105.572ZM77.635 13.2574C77.6083 13.2574 77.5815 13.2574 77.5548 13.2515C77.2073 13.207 76.9638 12.8927 77.0083 12.5459C77.047 12.2524 77.0885 11.9619 77.139 11.6743C77.1984 11.3305 77.5251 11.0992 77.8696 11.1585C78.2141 11.2178 78.4428 11.5439 78.3864 11.8878C78.3388 12.1575 78.3002 12.4303 78.2646 12.706C78.223 13.0232 77.9528 13.2574 77.6379 13.2574H77.635ZM104.946 11.9382C104.672 11.9382 104.423 11.7603 104.34 11.4876C104.262 11.2267 104.176 10.9629 104.087 10.702C103.974 10.3729 104.147 10.0142 104.476 9.89859C104.806 9.78594 105.165 9.95788 105.281 10.2869C105.379 10.5656 105.468 10.8502 105.551 11.1289C105.649 11.4639 105.459 11.8137 105.124 11.9115C105.064 11.9293 105.005 11.9382 104.946 11.9382ZM78.3834 9.92824C78.3151 9.92824 78.2468 9.91638 78.1785 9.89266C77.8488 9.78001 77.6736 9.4213 77.7864 9.09224C77.8874 8.80469 77.9943 8.52306 78.1102 8.25329C78.2468 7.93312 78.618 7.78489 78.9387 7.92126C79.2595 8.05763 79.408 8.42819 79.2714 8.74836C79.1674 8.98849 79.0694 9.24343 78.9803 9.50431C78.8912 9.76519 78.6447 9.92824 78.3834 9.92824ZM103.686 8.76318C103.455 8.76318 103.232 8.63571 103.119 8.41337C102.988 8.14953 102.858 7.90348 102.736 7.67817L102.721 7.65149V7.6426L102.484 7.21867L102.478 7.20682L102.409 7.07934C102.243 6.774 102.353 6.39157 102.659 6.2226C102.965 6.05362 103.348 6.16627 103.517 6.47162L103.844 7.06748C103.974 7.30761 104.114 7.56849 104.254 7.85011C104.408 8.16139 104.28 8.54084 103.968 8.695C103.879 8.73947 103.781 8.76022 103.689 8.76022L103.686 8.76318ZM79.993 6.93408C79.8534 6.93408 79.7109 6.88665 79.5921 6.79178C79.3218 6.57241 79.2832 6.17517 79.503 5.9054C79.702 5.66231 79.9158 5.43107 80.1385 5.22059C80.391 4.98047 80.7919 4.98936 81.0325 5.24134C81.273 5.49333 81.2641 5.89354 81.0117 6.13366C80.8276 6.30857 80.6494 6.50126 80.4831 6.70285C80.3583 6.85404 80.1772 6.93408 79.993 6.93408ZM101.821 5.87279C101.643 5.87279 101.465 5.79867 101.34 5.65045C101.165 5.4459 100.981 5.24431 100.794 5.05754C100.547 4.81149 100.55 4.41128 100.797 4.16523C101.043 3.91917 101.444 3.92214 101.691 4.16819C101.898 4.37867 102.106 4.60101 102.302 4.83224C102.528 5.09608 102.498 5.49333 102.231 5.7216C102.112 5.82239 101.967 5.87279 101.821 5.87279ZM82.5471 4.66919C82.354 4.66919 82.164 4.58026 82.0392 4.41425C81.8313 4.13558 81.8907 3.7413 82.1699 3.53379C82.4075 3.35888 82.6481 3.18694 82.8886 3.02389C83.1767 2.82823 83.5687 2.90235 83.7647 3.1899C83.9607 3.47746 83.8865 3.86878 83.5984 4.06443C83.3727 4.21859 83.147 4.37867 82.9213 4.54468C82.8084 4.62769 82.6748 4.66919 82.5441 4.66919H82.5471ZM99.2553 3.62569C99.1336 3.62569 99.0088 3.59011 98.899 3.516C98.6703 3.36185 98.4386 3.21066 98.207 3.07429C97.907 2.89345 97.812 2.50807 97.9932 2.20865C98.1743 1.90923 98.5604 1.81437 98.8604 1.99521C99.1098 2.1464 99.3623 2.30648 99.6087 2.47546C99.8968 2.67111 99.9711 3.06243 99.7751 3.34999C99.6533 3.52786 99.4543 3.62569 99.2524 3.62569H99.2553ZM85.4545 2.87567C85.2229 2.87567 85.0002 2.74819 84.8903 2.52585C84.7358 2.21458 84.8606 1.83512 85.1724 1.68097C85.4367 1.54756 85.707 1.42306 85.9743 1.30447C86.292 1.16514 86.6662 1.3104 86.8058 1.62761C86.9454 1.94481 86.7999 2.31834 86.4821 2.45767C86.2326 2.56736 85.9832 2.68594 85.7367 2.80748C85.6446 2.85195 85.5496 2.8727 85.4545 2.8727V2.87567ZM96.2291 2.04857C96.1548 2.04857 96.0806 2.03671 96.0093 2.01003C95.7539 1.91516 95.4955 1.82919 95.2372 1.75212C94.9016 1.65429 94.7115 1.30151 94.8125 0.969485C94.9135 0.63746 95.2639 0.444767 95.5965 0.54556C95.8816 0.628566 96.1667 0.726395 96.4488 0.830153C96.7755 0.951698 96.9418 1.31337 96.8201 1.63946C96.725 1.89441 96.4845 2.05153 96.2291 2.05153V2.04857ZM88.653 1.67504C88.3709 1.67504 88.1125 1.48531 88.0413 1.19775C87.9551 0.859798 88.1601 0.518879 88.4986 0.432909C88.7897 0.358796 89.0837 0.296541 89.3717 0.240215C89.7133 0.174996 90.0459 0.400299 90.1083 0.744182C90.1736 1.0851 89.9479 1.41713 89.6034 1.47938C89.3391 1.52978 89.0688 1.58907 88.8045 1.65429C88.754 1.66614 88.7006 1.67207 88.6501 1.67207L88.653 1.67504ZM92.8969 1.30447C92.8791 1.30447 92.8613 1.30447 92.8465 1.30447C92.5792 1.28372 92.3059 1.2689 92.0357 1.26594C91.6882 1.26297 91.409 0.975414 91.412 0.628566C91.415 0.281719 91.6971 -0.00583894 92.0476 9.00765e-05C92.3475 0.00305459 92.6475 0.0178771 92.9445 0.0415932C93.2919 0.0682738 93.5503 0.373618 93.5236 0.720466C93.4968 1.04953 93.2206 1.29855 92.894 1.29855L92.8969 1.30447Z" fill="#A1908D"/>
<path d="M78.4606 33.2203C78.4517 38.2274 72.6338 49.2109 59.2042 44.3669C45.7747 39.5199 51.5926 24.7507 55.9671 21.4305C59.2458 18.9432 67.4277 16.5568 72.5625 20.2447C76.9312 23.3841 78.4695 28.8595 78.4606 33.2203Z" fill="white"/>
<path d="M65.0547 46.193C65.0547 46.193 65.0398 46.193 65.0339 46.193C64.7458 46.1841 64.4518 46.1663 64.1608 46.1426C63.8133 46.113 63.5549 45.8076 63.5846 45.4608C63.6143 45.1139 63.9202 44.859 64.2677 44.8857C64.5379 44.9094 64.8082 44.9242 65.0755 44.9331C65.4229 44.945 65.6962 45.2355 65.6873 45.5823C65.6754 45.9232 65.3962 46.193 65.0576 46.193H65.0547ZM67.5701 46.0507C67.2642 46.0507 66.994 45.8254 66.9465 45.5141C66.896 45.1703 67.1306 44.8501 67.4781 44.7967C67.7424 44.7582 68.0067 44.7078 68.2651 44.6515C68.6066 44.5774 68.9422 44.7908 69.0164 45.1317C69.0907 45.4726 68.8768 45.8076 68.5353 45.8817C68.2502 45.944 67.9592 45.9974 67.6681 46.0418C67.6355 46.0478 67.6058 46.0478 67.5731 46.0478L67.5701 46.0507ZM61.7225 45.7424C61.675 45.7424 61.6275 45.7365 61.58 45.7246C61.3038 45.6594 61.0216 45.5883 60.7395 45.5112C60.4039 45.4193 60.2049 45.0724 60.3 44.7374C60.392 44.4025 60.7395 44.2038 61.0751 44.2987C61.3424 44.3728 61.6067 44.438 61.8651 44.5003C62.2036 44.5803 62.4175 44.9183 62.3373 45.2562C62.269 45.5468 62.0106 45.7454 61.7225 45.7454V45.7424ZM70.7894 45.111C70.5489 45.111 70.3202 44.9716 70.2133 44.7404C70.0707 44.4232 70.2133 44.0497 70.5281 43.9074C70.7686 43.7977 71.0092 43.6791 71.2408 43.5546C71.5467 43.3886 71.9298 43.5042 72.0961 43.8095C72.2625 44.1149 72.1466 44.4973 71.8407 44.6633C71.5824 44.8027 71.3151 44.9331 71.0478 45.0546C70.9646 45.0932 70.8755 45.111 70.7894 45.111ZM58.5151 44.7315C58.4349 44.7315 58.3547 44.7167 58.2775 44.6841C58.0043 44.5744 57.737 44.4558 57.4786 44.3372C57.1638 44.189 57.0272 43.8155 57.1728 43.4983C57.3212 43.184 57.6954 43.0477 58.0132 43.1929C58.2538 43.3056 58.5032 43.4123 58.7557 43.5161C59.0794 43.6465 59.2338 44.0141 59.1031 44.3372C59.0022 44.5833 58.7675 44.7285 58.5181 44.7285L58.5151 44.7315ZM73.6256 43.3234C73.4444 43.3234 73.2663 43.2463 73.1415 43.0981C72.9158 42.8313 72.9515 42.434 73.2187 42.2087C73.4207 42.0397 73.6197 41.8589 73.8127 41.6751C74.0651 41.435 74.4631 41.4439 74.7066 41.6929C74.9472 41.9449 74.9383 42.3421 74.6888 42.5852C74.475 42.7898 74.2552 42.9884 74.0325 43.1751C73.9137 43.273 73.7711 43.3234 73.6256 43.3234ZM55.5572 43.1425C55.4324 43.1425 55.3047 43.107 55.1948 43.0269C54.9513 42.855 54.7137 42.6771 54.488 42.4963C54.2178 42.2769 54.1762 41.8797 54.396 41.6099C54.6157 41.3401 55.0137 41.2956 55.2839 41.518C55.4859 41.681 55.7027 41.8441 55.9225 41.9982C56.2076 42.1969 56.2759 42.5911 56.0769 42.8757C55.9551 43.0506 55.7591 43.1455 55.5601 43.1455L55.5572 43.1425ZM75.9005 40.8569C75.7728 40.8569 75.6451 40.8184 75.5322 40.7383C75.2501 40.5338 75.1848 40.1424 75.3897 39.8579C75.5441 39.6444 75.6956 39.4191 75.8411 39.1908C76.0282 38.8974 76.4172 38.8084 76.7113 38.9952C77.0053 39.1819 77.0944 39.5703 76.9073 39.8638C76.7499 40.1128 76.5836 40.3559 76.4143 40.5901C76.2895 40.762 76.0965 40.851 75.9005 40.851V40.8569ZM53.116 40.848C52.9289 40.848 52.7418 40.765 52.617 40.6049C52.4329 40.3707 52.2577 40.1247 52.0973 39.8786C51.9072 39.5881 51.9874 39.1968 52.2814 39.007C52.5725 38.8173 52.9645 38.8974 53.1546 39.1908C53.2971 39.4072 53.4516 39.6237 53.6119 39.8312C53.8258 40.1069 53.7782 40.5012 53.502 40.7146C53.3862 40.8035 53.2496 40.848 53.116 40.848ZM77.5369 37.925C77.4567 37.925 77.3735 37.9102 77.2963 37.8776C76.9756 37.7442 76.8211 37.3766 76.9548 37.0534C77.0587 36.8074 77.1538 36.5554 77.2399 36.3034C77.3527 35.9743 77.7121 35.7994 78.0417 35.9151C78.3714 36.0277 78.5466 36.3864 78.4308 36.7155C78.3358 36.9912 78.2318 37.2669 78.1189 37.5366C78.018 37.7797 77.7834 37.925 77.5369 37.925ZM51.5182 37.9102C51.2569 37.9102 51.0133 37.7471 50.9213 37.4862C50.8233 37.2105 50.7371 36.923 50.6599 36.6354C50.5708 36.2975 50.7728 35.9536 51.1084 35.8647C51.4469 35.7757 51.7914 35.9773 51.8805 36.3123C51.9488 36.5672 52.026 36.8222 52.1122 37.0682C52.228 37.3973 52.0528 37.756 51.7231 37.8716C51.6548 37.8953 51.5835 37.9072 51.5152 37.9072L51.5182 37.9102ZM78.413 34.6877C78.3892 34.6877 78.3654 34.6877 78.3417 34.6848C77.9942 34.6462 77.7448 34.335 77.7834 33.9881C77.8131 33.7184 77.8279 33.4604 77.8309 33.2174C77.8309 32.8705 78.113 32.5889 78.4635 32.5889C78.8109 32.5889 79.0931 32.8735 79.0931 33.2203C79.0931 33.5079 79.0752 33.8132 79.0396 34.1275C79.004 34.4506 78.7307 34.6877 78.413 34.6877ZM50.8916 34.6196C50.556 34.6196 50.2798 34.3587 50.262 34.0207C50.2501 33.7836 50.2441 33.5464 50.2441 33.3093V33.1403C50.2501 32.7934 50.5382 32.5177 50.8827 32.5177C51.2301 32.5207 51.5123 32.8053 51.5063 33.1551V33.3093C51.5063 33.5257 51.5093 33.7421 51.5212 33.9555C51.539 34.3024 51.2717 34.5988 50.9213 34.6166C50.9094 34.6166 50.9005 34.6166 50.8886 34.6166L50.8916 34.6196ZM78.3803 32.0671C78.0566 32.0671 77.7834 31.8211 77.7537 31.495C77.7299 31.2282 77.6972 30.9584 77.6616 30.6857C77.6141 30.3418 77.8576 30.0246 78.2021 29.9771C78.5466 29.9297 78.8644 30.1728 78.9119 30.5167C78.9505 30.8072 78.9832 31.0948 79.0099 31.3794C79.0426 31.7262 78.7872 32.0315 78.4397 32.0642C78.4189 32.0642 78.4011 32.0642 78.3803 32.0642V32.0671ZM51.1173 31.2697C51.0816 31.2697 51.043 31.2667 51.0074 31.2608C50.6629 31.2015 50.4342 30.8724 50.4966 30.5315C50.5471 30.2499 50.6035 29.9623 50.6688 29.6777C50.746 29.3398 51.0846 29.1263 51.4232 29.2034C51.7617 29.2805 51.9756 29.6184 51.8983 29.9564C51.8389 30.2202 51.7825 30.487 51.738 30.7509C51.6845 31.0562 51.4172 31.2726 51.1173 31.2726V31.2697ZM77.7804 28.7617C77.5042 28.7617 77.2488 28.5779 77.1716 28.2992C77.1003 28.0384 77.0201 27.7775 76.937 27.5225C76.83 27.1905 77.0082 26.8348 77.3409 26.728C77.6735 26.6213 78.0299 26.8021 78.1368 27.1312C78.2259 27.4039 78.312 27.6856 78.3892 27.9642C78.4813 28.2992 78.2853 28.6461 77.9467 28.738C77.8903 28.7528 77.8338 28.7617 77.7774 28.7617H77.7804ZM52.0112 28.0324C51.9369 28.0324 51.8627 28.0206 51.7885 27.9909C51.4618 27.8694 51.2984 27.5047 51.4202 27.1786C51.5241 26.9059 51.631 26.6361 51.7469 26.3723C51.8835 26.0521 52.2547 25.9039 52.5755 26.0432C52.8962 26.1796 53.0447 26.5502 52.9051 26.8703C52.7982 27.1164 52.6972 27.3684 52.6022 27.6233C52.5072 27.8753 52.2666 28.0324 52.0112 28.0324ZM76.5746 25.6282C76.346 25.6282 76.1232 25.5037 76.0104 25.2843C75.8856 25.0442 75.7579 24.8041 75.6243 24.5758C75.4491 24.2764 75.5501 23.888 75.853 23.7131C76.1529 23.5382 76.542 23.639 76.7172 23.9414C76.8627 24.1904 77.0023 24.4483 77.1359 24.7092C77.2933 25.0205 77.1716 25.3999 76.8597 25.5571C76.7677 25.6045 76.6697 25.6252 76.5746 25.6252V25.6282ZM53.4753 25.0116C53.3625 25.0116 53.2496 24.9819 53.1486 24.9197C52.8516 24.7388 52.7566 24.3505 52.9378 24.054C53.0922 23.8021 53.2496 23.553 53.4129 23.3189C53.609 23.0313 54.0039 22.9572 54.292 23.1558C54.5801 23.3515 54.6543 23.7457 54.4554 24.0333C54.3069 24.2497 54.1584 24.478 54.0188 24.7122C53.9 24.9078 53.6921 25.0145 53.4783 25.0145L53.4753 25.0116ZM74.7096 22.8386C74.5314 22.8386 74.3562 22.7645 74.2314 22.6192C74.0562 22.4176 73.8751 22.219 73.688 22.0323C73.4444 21.7832 73.4474 21.386 73.6939 21.1399C73.9434 20.8968 74.3413 20.8998 74.5878 21.1459C74.7927 21.3534 74.9947 21.5728 75.1877 21.7951C75.4164 22.0589 75.3867 22.4562 75.1224 22.6844C75.0036 22.7882 74.8551 22.8386 74.7096 22.8386ZM55.5661 22.388C55.3938 22.388 55.2216 22.3168 55.0968 22.1805C54.8622 21.9226 54.886 21.5224 55.1444 21.2911C55.2928 21.1577 55.4413 21.0362 55.5869 20.9265C55.676 20.8583 55.768 20.7931 55.8631 20.7249C56.1482 20.5233 56.5431 20.5915 56.7421 20.8761C56.9441 21.1607 56.8758 21.555 56.5907 21.7536C56.5075 21.8129 56.4273 21.8722 56.3501 21.9285C56.2313 22.0174 56.1125 22.1182 55.9908 22.2279C55.869 22.3376 55.7205 22.391 55.569 22.391L55.5661 22.388ZM58.429 20.636C58.1884 20.636 57.9598 20.4966 57.8528 20.2654C57.7103 19.9482 57.8528 19.5747 58.1676 19.4324C58.426 19.3168 58.6963 19.2011 58.9695 19.0944C59.2932 18.9669 59.6615 19.1241 59.7892 19.4472C59.9169 19.7703 59.7595 20.1379 59.4358 20.2654C59.1774 20.3662 58.9279 20.4729 58.6874 20.5826C58.6042 20.6211 58.5151 20.6389 58.429 20.6389V20.636ZM72.1941 20.6211C72.0754 20.6211 71.9566 20.5885 71.8526 20.5204C71.6358 20.381 71.4071 20.2476 71.1755 20.1261C70.8666 19.963 70.7478 19.5836 70.9082 19.2753C71.0686 18.9669 71.4517 18.8484 71.7605 19.0085C72.0278 19.1478 72.2892 19.299 72.5386 19.462C72.8327 19.6518 72.9158 20.0401 72.7257 20.3336C72.604 20.5204 72.402 20.6211 72.1941 20.6211ZM61.6037 19.5361C61.3216 19.5361 61.0632 19.3464 60.992 19.0618C60.9058 18.7239 61.1107 18.3829 61.4493 18.297C61.7285 18.2258 62.0106 18.1606 62.2957 18.1013C62.6372 18.0302 62.9699 18.2495 63.0411 18.5905C63.1124 18.9314 62.8926 19.2634 62.5511 19.3345C62.2838 19.3909 62.0195 19.4502 61.7582 19.5183C61.7077 19.5302 61.6542 19.5391 61.6037 19.5391V19.5361ZM69.1055 19.3197C69.055 19.3197 69.0075 19.3138 68.957 19.3019C68.7046 19.2397 68.4403 19.1863 68.176 19.1419C67.8315 19.0826 67.5998 18.7594 67.6592 18.4155C67.7186 18.0717 68.0423 17.8404 68.3868 17.8997C68.6808 17.9501 68.9719 18.0094 69.254 18.0776C69.5926 18.1606 69.8005 18.4986 69.7203 18.8395C69.649 19.127 69.3906 19.3227 69.1085 19.3227L69.1055 19.3197ZM64.924 19.0025C64.5944 19.0025 64.3152 18.7476 64.2944 18.4126C64.2706 18.0657 64.535 17.7663 64.8824 17.7426C65.1764 17.7248 65.4705 17.713 65.7556 17.707C66.1119 17.707 66.3911 17.9798 66.397 18.3296C66.403 18.6764 66.1238 18.964 65.7734 18.9699C65.5091 18.9729 65.2358 18.9847 64.9656 19.0025C64.9507 19.0025 64.9389 19.0025 64.924 19.0025Z" fill="#A1908D"/>
<path d="M36.6196 57.5294C36.5335 56.1449 37.1631 54.8139 38.2382 53.9334C41.1516 51.544 48.0713 45.612 48.4514 42.938C48.9355 39.5466 50.3937 8.53193 25.9579 10.7938C1.52219 13.0558 -2.84346 27.9169 4.11485 43.5843C11.0732 59.2517 40.6853 46.1545 40.6853 58.7685C40.6853 60.6539 40.4388 61.2202 39.7142 61.3536C38.5055 61.5759 36.8305 60.8941 36.6196 57.5294Z" fill="white"/>
<path d="M40.0851 61.8487C39.8712 61.8487 39.6633 61.7419 39.5445 61.5463C39.3634 61.2498 39.4584 60.8615 39.7554 60.6806C39.8207 60.6421 39.8772 60.5354 39.9247 60.3664C40.0167 60.0314 40.3642 59.8328 40.6998 59.9277C41.0354 60.0196 41.2344 60.3664 41.1393 60.7014C41.0027 61.1965 40.7651 61.5433 40.4117 61.7568C40.3078 61.819 40.1949 61.8487 40.0851 61.8487ZM37.7567 61.3773C37.5963 61.3773 37.436 61.318 37.3142 61.1965C37.0826 60.9682 36.8776 60.6925 36.7024 60.3812C36.5331 60.0759 36.643 59.6935 36.9489 59.5245C37.2548 59.3555 37.6379 59.4682 37.8072 59.7705C37.923 59.9781 38.0537 60.1559 38.1992 60.2982C38.4487 60.5413 38.4487 60.9415 38.2052 61.1905C38.0804 61.3151 37.92 61.3773 37.7567 61.3773ZM36.6668 58.8753C36.3371 58.8753 36.058 58.6173 36.0372 58.2853L35.9926 57.5649C35.9867 57.4641 35.9837 57.3693 35.9837 57.2744C35.9837 57.0491 36.0015 56.8209 36.0342 56.5985C36.0847 56.2546 36.4025 56.0145 36.7499 56.0649C37.0944 56.1153 37.335 56.4355 37.2845 56.7793C37.2607 56.9454 37.2489 57.1114 37.2489 57.2774C37.2489 57.3485 37.2489 57.4197 37.2548 57.4908L37.2637 57.6064C37.2637 57.6064 37.2637 57.6331 37.2637 57.645L37.2994 58.2082C37.3201 58.5551 37.0558 58.8545 36.7084 58.8753C36.6965 58.8753 36.6816 58.8753 36.6698 58.8753H36.6668ZM40.6493 58.65C40.3286 58.65 40.0554 58.4098 40.0227 58.0837C39.996 57.8288 39.9544 57.5798 39.895 57.3485C39.8118 57.0106 40.0167 56.6697 40.3553 56.5837C40.6939 56.5007 41.0354 56.7052 41.1215 57.0432C41.1928 57.3337 41.2463 57.6391 41.2789 57.9533C41.3146 58.3001 41.0621 58.6085 40.7147 58.644C40.6939 58.644 40.6701 58.647 40.6493 58.647V58.65ZM39.3159 55.6736C39.1525 55.6736 38.9892 55.6113 38.8645 55.4868C38.6981 55.3178 38.511 55.1578 38.3091 55.0125C38.2527 54.971 38.2081 54.9236 38.1695 54.8702C37.9379 55.1133 37.5518 55.1311 37.2964 54.9058C37.035 54.6745 37.0113 54.2773 37.2429 54.0164C37.4241 53.8119 37.626 53.6192 37.8369 53.4443L37.926 53.3702C38.1962 53.1478 38.5942 53.1864 38.814 53.4561C38.9298 53.5955 38.9743 53.7674 38.9535 53.9334C38.9892 53.9512 39.0219 53.969 39.0545 53.9927C39.3129 54.1795 39.5505 54.384 39.7643 54.6004C40.0078 54.8494 40.0049 55.2467 39.7584 55.4928C39.6366 55.6143 39.4762 55.6736 39.3159 55.6736ZM36.4262 54.0431C36.3639 54.0431 36.2985 54.0342 36.2332 54.0135C35.9926 53.9364 35.7313 53.8652 35.461 53.7971C35.1225 53.714 34.9176 53.3702 35.0007 53.0322C35.0839 52.6943 35.4254 52.4867 35.7669 52.5727C36.0639 52.6468 36.349 52.7269 36.6163 52.8128C36.9489 52.9196 37.133 53.2723 37.0261 53.6044C36.94 53.8712 36.6935 54.0431 36.4233 54.0431H36.4262ZM33.1267 53.3761C33.1 53.3761 33.0763 53.3761 33.0495 53.3702C32.7793 53.3376 32.5061 53.3079 32.2269 53.2812C31.8794 53.2486 31.624 52.9403 31.6597 52.5935C31.6953 52.2466 32.0042 51.9917 32.3487 52.0272C32.6397 52.0539 32.9248 52.0865 33.204 52.1191C33.5514 52.1606 33.7979 52.4749 33.7534 52.8217C33.7148 53.1419 33.4415 53.3761 33.1267 53.3761ZM29.759 53.1093C29.759 53.1093 29.7382 53.1093 29.7263 53.1093C29.4501 53.0945 29.1709 53.0826 28.8888 53.0707C28.5413 53.0559 28.2681 52.7624 28.283 52.4156C28.2978 52.0687 28.5889 51.796 28.9393 51.8108C29.2244 51.8227 29.5065 51.8345 29.7887 51.8494C30.1361 51.8672 30.4064 52.1606 30.3886 52.5105C30.3707 52.8484 30.0916 53.1093 29.759 53.1093ZM26.3823 52.9877C26.3823 52.9877 26.3704 52.9877 26.3644 52.9877L25.521 52.964C25.1735 52.9522 24.8974 52.6616 24.9092 52.3148C24.9211 51.9679 25.2062 51.6922 25.5596 51.7041L26.4031 51.7278C26.7505 51.7367 27.0267 52.0272 27.0148 52.377C27.0059 52.718 26.7238 52.9877 26.3852 52.9877H26.3823ZM23.0056 52.8721C23.0056 52.8721 22.9878 52.8721 22.9788 52.8721C22.6967 52.8603 22.4146 52.8454 22.1295 52.8306C21.782 52.8128 21.5147 52.5164 21.5325 52.1695C21.5504 51.8227 21.8503 51.5559 22.1948 51.5737C22.474 51.5885 22.7531 51.6003 23.0323 51.6122C23.3798 51.627 23.65 51.9205 23.6352 52.2703C23.6203 52.6083 23.3412 52.8721 23.0056 52.8721ZM40.2662 52.8543C40.088 52.8543 39.9128 52.7802 39.7881 52.635C39.5594 52.3711 39.5891 51.9739 39.8534 51.7456C40.0583 51.5677 40.2722 51.3839 40.486 51.1972C40.7473 50.9689 41.1483 50.9926 41.3769 51.2565C41.6056 51.5173 41.5818 51.9175 41.3175 52.1458C41.1007 52.3355 40.8839 52.5223 40.676 52.7031C40.5573 52.8069 40.4088 52.8573 40.2632 52.8573L40.2662 52.8543ZM19.6348 52.6587C19.617 52.6587 19.5962 52.6587 19.5784 52.6587C19.2963 52.635 19.0112 52.6053 18.732 52.5757C18.3845 52.5401 18.1321 52.2288 18.1707 51.882C18.2063 51.5351 18.5182 51.2861 18.8656 51.3217C19.1418 51.3513 19.418 51.378 19.6942 51.4017C20.0417 51.4314 20.2971 51.7397 20.2674 52.0865C20.2377 52.4156 19.9615 52.6616 19.6378 52.6616L19.6348 52.6587ZM16.2878 52.2407C16.2522 52.2407 16.2165 52.2407 16.1809 52.2318C15.8958 52.1844 15.6137 52.134 15.3345 52.0776C14.993 52.0094 14.7702 51.6804 14.8356 51.3365C14.9009 50.9926 15.2335 50.7733 15.578 50.8385C15.8483 50.8918 16.1185 50.9393 16.3918 50.9867C16.7363 51.046 16.9679 51.3691 16.9085 51.713C16.858 52.0213 16.5878 52.2377 16.2878 52.2377V52.2407ZM13.0002 51.4907C12.9408 51.4907 12.8785 51.4818 12.8191 51.464C12.5399 51.381 12.2637 51.292 11.9934 51.1972C11.6638 51.0845 11.4886 50.7258 11.6014 50.3968C11.7143 50.0677 12.0736 49.8928 12.4033 50.0054C12.6587 50.0944 12.92 50.1774 13.1814 50.2545C13.514 50.3553 13.7041 50.7051 13.6031 51.0401C13.5199 51.3128 13.2705 51.4907 12.9972 51.4907H13.0002ZM42.7846 50.6102C42.6153 50.6102 42.4461 50.542 42.3213 50.4086C42.0838 50.1537 42.0986 49.7535 42.354 49.5193C42.5589 49.3295 42.7609 49.1398 42.9628 48.9471C43.2153 48.707 43.6162 48.7188 43.8567 48.9708C44.0973 49.2228 44.0854 49.623 43.833 49.8631C43.6281 50.0588 43.4202 50.2515 43.2123 50.4442C43.0905 50.5568 42.9361 50.6132 42.7817 50.6132L42.7846 50.6102ZM9.87299 50.2456C9.77498 50.2456 9.67698 50.2219 9.58195 50.1744C9.3206 50.0381 9.06223 49.8958 8.81276 49.7505C8.51281 49.5726 8.4148 49.1872 8.59299 48.8878C8.77118 48.5884 9.15726 48.4906 9.45721 48.6684C9.68292 48.8018 9.92051 48.9353 10.1611 49.0598C10.4699 49.2198 10.5917 49.5993 10.4313 49.9106C10.3185 50.127 10.0987 50.2515 9.87002 50.2515L9.87299 50.2456ZM7.10511 48.3572C6.95365 48.3572 6.80516 48.3038 6.68339 48.1971C6.46363 48.0014 6.2498 47.7969 6.04488 47.5834C5.80135 47.3344 5.81026 46.9342 6.05973 46.6911C6.30919 46.448 6.71012 46.4569 6.95365 46.7059C7.13778 46.8957 7.33082 47.0795 7.52682 47.2573C7.7852 47.4886 7.80896 47.8888 7.57434 48.1467C7.44961 48.286 7.27736 48.3572 7.10511 48.3572ZM45.1932 48.2534C45.0358 48.2534 44.8784 48.1941 44.7566 48.0785C44.5042 47.8384 44.4953 47.4382 44.7388 47.1862C44.9318 46.9846 45.1219 46.783 45.306 46.5814C45.5406 46.3235 45.9416 46.3087 46.197 46.5429C46.4553 46.7771 46.4702 47.1773 46.2356 47.4322C46.0455 47.6398 45.8495 47.8473 45.6475 48.0578C45.5228 48.1882 45.3565 48.2534 45.1902 48.2534H45.1932ZM4.95792 45.8047C4.74706 45.8047 4.54215 45.701 4.42038 45.5083C4.26595 45.2622 4.11746 45.0043 3.97788 44.7464C3.81454 44.4381 3.93036 44.0586 4.23625 43.8926C4.54512 43.7296 4.92525 43.8452 5.09156 44.1505C5.2163 44.3847 5.35291 44.616 5.48952 44.8383C5.67365 45.1348 5.58456 45.5231 5.28757 45.7069C5.18363 45.7721 5.06781 45.8018 4.95495 45.8018L4.95792 45.8047ZM47.3879 45.698C47.2602 45.698 47.1295 45.6595 47.0196 45.5794C46.7375 45.3749 46.6721 44.9806 46.8771 44.699C47.0434 44.4677 47.1919 44.2454 47.3166 44.0408C47.4977 43.7444 47.8868 43.6495 48.1838 43.8304C48.4808 44.0112 48.5758 44.3996 48.3946 44.696C48.2521 44.9302 48.0858 45.1792 47.8987 45.4371C47.7739 45.6091 47.5809 45.698 47.3849 45.698H47.3879ZM3.50865 42.778C3.25918 42.778 3.02159 42.6268 2.92359 42.3807C2.81668 42.1139 2.71273 41.8501 2.61473 41.5833C2.49296 41.2572 2.65631 40.8925 2.98299 40.771C3.30967 40.6494 3.67496 40.8125 3.79672 41.1386C3.89472 41.3965 3.99273 41.6544 4.09667 41.9123C4.22734 42.2355 4.06994 42.6031 3.74623 42.7305C3.66902 42.7602 3.58883 42.775 3.51162 42.775L3.50865 42.778ZM48.552 42.606C48.5372 42.606 48.5194 42.606 48.5045 42.606C48.157 42.5793 47.8957 42.277 47.9224 41.9301C47.9402 41.687 47.9581 41.4113 47.9729 41.106C47.9907 40.7591 48.2877 40.4953 48.6352 40.5071C48.9827 40.5249 49.2529 40.8184 49.2351 41.1682C49.2202 41.4854 49.2024 41.773 49.1816 42.025C49.1579 42.357 48.8787 42.609 48.552 42.609V42.606ZM2.39199 39.603C2.12174 39.603 1.8693 39.4281 1.78615 39.1553C1.70299 38.8796 1.62577 38.6069 1.54856 38.3312C1.45649 37.9962 1.65547 37.6494 1.99106 37.5575C2.32665 37.4656 2.67412 37.6642 2.76619 37.9992C2.83746 38.263 2.91468 38.5269 2.99487 38.7937C3.09584 39.1257 2.90577 39.4785 2.57315 39.5793C2.51375 39.597 2.45139 39.6059 2.39199 39.6059V39.603ZM48.653 39.2413C48.3055 39.2413 48.0234 38.9626 48.0204 38.6158C48.0204 38.346 48.0145 38.0703 48.0086 37.7828C47.9996 37.4359 48.2758 37.1454 48.6263 37.1395C48.9708 37.1306 49.2648 37.4063 49.2707 37.7561C49.2767 38.0496 49.2826 38.3342 49.2826 38.6099C49.2826 38.9567 49.0034 39.2413 48.656 39.2443H48.653V39.2413ZM1.58717 36.3361C1.29018 36.3361 1.02587 36.1256 0.966473 35.8232C0.913016 35.5386 0.862529 35.257 0.817981 34.9754C0.764524 34.6315 0.999141 34.3084 1.34364 34.255C1.69111 34.2016 2.01185 34.4358 2.06531 34.7797C2.10689 35.0495 2.1544 35.3193 2.20786 35.589C2.2732 35.9299 2.04749 36.262 1.70596 36.3242C1.66735 36.3331 1.62577 36.3361 1.58717 36.3361ZM48.5223 35.8736C48.1927 35.8736 47.9165 35.6187 47.8927 35.2866C47.8749 35.0139 47.8512 34.7382 47.8274 34.4566C47.7977 34.1097 48.0531 33.8044 48.4006 33.7747C48.748 33.7451 49.0539 34 49.0836 34.3469C49.1074 34.6345 49.1311 34.919 49.149 35.1977C49.1727 35.5446 48.9114 35.8469 48.5639 35.8707C48.5491 35.8707 48.5342 35.8707 48.5194 35.8707L48.5223 35.8736ZM1.16545 32.998C0.83283 32.998 0.556636 32.7401 0.535848 32.4051C0.518029 32.1146 0.506149 31.8271 0.50021 31.5425C0.4913 31.1956 0.767494 30.9051 1.11496 30.8962C1.46243 30.8903 1.75348 31.163 1.76239 31.5099C1.76833 31.7826 1.78021 32.0524 1.79802 32.3281C1.81881 32.6749 1.5545 32.9743 1.20703 32.9951C1.19515 32.9951 1.1803 32.9951 1.16842 32.9951L1.16545 32.998ZM48.1719 32.5208C47.8601 32.5208 47.5898 32.2925 47.5482 31.9753C47.5096 31.7026 47.471 31.4298 47.4265 31.1541C47.373 30.8102 47.6076 30.4871 47.9521 30.4337C48.2966 30.3804 48.6203 30.6146 48.6738 30.9585C48.7183 31.2431 48.7599 31.5247 48.7985 31.8033C48.8461 32.1472 48.6055 32.4674 48.258 32.5148C48.2283 32.5178 48.1986 32.5208 48.1719 32.5208ZM1.21594 29.6393C1.19515 29.6393 1.17733 29.6393 1.15654 29.6393C0.809072 29.6066 0.553667 29.3013 0.586335 28.9544C0.613063 28.6639 0.645731 28.3764 0.684339 28.0918C0.731856 27.7479 1.04963 27.5048 1.39413 27.5522C1.73863 27.5997 1.98215 27.9169 1.93464 28.2608C1.899 28.5276 1.86633 28.7973 1.84257 29.0701C1.81287 29.3962 1.53668 29.6422 1.21594 29.6422V29.6393ZM47.5898 29.2064C47.2988 29.2064 47.0374 29.0048 46.9721 28.7084C46.9127 28.4386 46.8533 28.1689 46.788 27.8991C46.7078 27.5611 46.9157 27.2202 47.2572 27.1402C47.5957 27.0601 47.9373 27.2676 48.0175 27.6086C48.0828 27.8872 48.1481 28.1659 48.2075 28.4416C48.2818 28.7825 48.065 29.1175 47.7234 29.1916C47.6789 29.2005 47.6344 29.2064 47.5898 29.2064ZM1.82178 26.3338C1.76536 26.3338 1.70893 26.3249 1.6525 26.3101C1.31691 26.2152 1.1209 25.8684 1.21594 25.5334C1.29315 25.2547 1.37928 24.9761 1.47134 24.7033C1.58123 24.3743 1.94058 24.1964 2.27023 24.3061C2.59988 24.4158 2.78104 24.7745 2.66818 25.1035C2.58206 25.3585 2.50484 25.6164 2.4306 25.8743C2.35338 26.153 2.09798 26.3338 1.82178 26.3338ZM46.7345 25.9484C46.4642 25.9484 46.2177 25.7765 46.1316 25.5067C46.0485 25.2458 45.9653 24.982 45.8762 24.7241C45.7634 24.395 45.9416 24.0363 46.2712 23.9237C46.6009 23.811 46.9602 23.9889 47.0731 24.318C47.1651 24.5877 47.2542 24.8605 47.3403 25.1332C47.4443 25.4652 47.2602 25.818 46.9275 25.9218C46.8652 25.9425 46.7998 25.9514 46.7375 25.9514L46.7345 25.9484ZM3.04238 23.2092C2.94438 23.2092 2.84637 23.1855 2.75431 23.1381C2.44545 22.978 2.32071 22.5985 2.48109 22.2902C2.61473 22.0294 2.75728 21.7714 2.89983 21.5224C3.07505 21.22 3.46113 21.1192 3.76405 21.2942C4.06697 21.4691 4.16795 21.8544 3.99273 22.1568C3.85909 22.3881 3.72841 22.6252 3.60368 22.8683C3.49083 23.0847 3.27106 23.2122 3.04238 23.2122V23.2092ZM45.5614 22.7942C45.3179 22.7942 45.0862 22.6519 44.9823 22.4177C44.8724 22.1657 44.7596 21.9167 44.6408 21.6706C44.4893 21.3564 44.623 20.9799 44.9378 20.8317C45.2526 20.6835 45.6297 20.8139 45.7782 21.1281C45.903 21.389 46.0217 21.6499 46.1376 21.9137C46.2771 22.2339 46.1316 22.6045 45.8139 22.7438C45.7307 22.7794 45.6446 22.7972 45.5614 22.7972V22.7942ZM4.87477 20.3929C4.73519 20.3929 4.5956 20.3485 4.47978 20.2536C4.20656 20.0342 4.16498 19.64 4.38178 19.3672C4.55997 19.1449 4.75003 18.9196 4.94604 18.7002C5.17769 18.4393 5.57565 18.4156 5.83699 18.6468C6.09834 18.8781 6.1221 19.2753 5.89045 19.5362C5.70929 19.7407 5.53407 19.9483 5.36776 20.1528C5.24303 20.307 5.0589 20.39 4.87477 20.39V20.3929ZM44.0052 19.8089C43.7944 19.8089 43.5865 19.7022 43.4677 19.5095C43.3251 19.2783 43.1766 19.0471 43.0252 18.8218C42.8321 18.5312 42.9094 18.1399 43.1974 17.9472C43.4855 17.7545 43.8805 17.8316 44.0735 18.1192C44.2339 18.3593 44.3913 18.6024 44.5428 18.8484C44.7239 19.1449 44.6319 19.5332 44.3349 19.7141C44.2309 19.7763 44.1181 19.806 44.0052 19.806V19.8089ZM7.2239 17.9887C7.04571 17.9887 6.86752 17.9146 6.74279 17.7664C6.51708 17.5025 6.54975 17.1023 6.81406 16.877C7.03383 16.6903 7.25657 16.5094 7.48822 16.3286C7.76441 16.1152 8.1594 16.1626 8.37323 16.4383C8.58705 16.714 8.53954 17.1083 8.26334 17.3217C8.04654 17.4907 7.83569 17.6626 7.63077 17.8346C7.51197 17.9354 7.36645 17.9858 7.22093 17.9858L7.2239 17.9887ZM42.0154 17.0964C41.8402 17.0964 41.665 17.0223 41.5403 16.88C41.3621 16.6754 41.1779 16.4768 40.9908 16.2812C40.7503 16.0292 40.7562 15.6319 41.0087 15.3888C41.2611 15.1458 41.6591 15.1547 41.9026 15.4066C42.1016 15.6142 42.3005 15.8276 42.4906 16.047C42.7193 16.3078 42.6926 16.7081 42.4312 16.9363C42.3124 17.0401 42.1639 17.0934 42.0154 17.0934V17.0964ZM9.95911 16.0292C9.74529 16.0292 9.5374 15.9225 9.4186 15.7268C9.23745 15.4303 9.33248 15.042 9.63243 14.8612C9.87596 14.7129 10.1254 14.5677 10.3808 14.4283C10.6838 14.2594 11.0698 14.3661 11.2391 14.6714C11.4084 14.9768 11.2985 15.3592 10.9956 15.5282C10.755 15.6616 10.5174 15.8009 10.2888 15.9402C10.1878 16.0025 10.072 16.0321 9.96208 16.0321L9.95911 16.0292ZM39.5683 14.793C39.4347 14.793 39.298 14.7515 39.1852 14.6625C38.9714 14.4995 38.7516 14.3394 38.5318 14.1882C38.2438 13.9896 38.1725 13.5983 38.3715 13.3107C38.5704 13.0232 38.9625 12.952 39.2505 13.1506C39.4881 13.3137 39.7257 13.4886 39.9574 13.6635C40.2335 13.8769 40.284 14.2712 40.0732 14.5469C39.9484 14.707 39.7613 14.793 39.5713 14.793H39.5683ZM12.9497 14.4847C12.7062 14.4847 12.4746 14.3424 12.3706 14.1082C12.231 13.788 12.3766 13.4174 12.6943 13.2781C12.9527 13.1655 13.22 13.0528 13.4873 12.9431C13.811 12.8127 14.1792 12.9698 14.3099 13.29C14.4406 13.6131 14.2832 13.9807 13.9624 14.1111C13.7041 14.2149 13.4516 14.3216 13.2022 14.4313C13.119 14.4669 13.0329 14.4847 12.9497 14.4847ZM16.1037 13.3078C15.8364 13.3078 15.5869 13.1358 15.5008 12.869C15.3939 12.537 15.578 12.1842 15.9106 12.0775C16.1809 11.9915 16.4541 11.9085 16.7303 11.8285C17.0659 11.7306 17.4164 11.9233 17.5144 12.2583C17.6124 12.5933 17.4193 12.9431 17.0837 13.041C16.8164 13.118 16.5521 13.1981 16.2908 13.2811C16.2284 13.3018 16.1631 13.3107 16.1007 13.3107L16.1037 13.3078ZM36.7054 13.038C36.6133 13.038 36.5213 13.0172 36.4322 12.9757C36.1916 12.8601 35.9421 12.7504 35.6927 12.6467C35.3719 12.5133 35.2175 12.1427 35.3511 11.8225C35.4848 11.5024 35.856 11.3482 36.1768 11.4816C36.447 11.5943 36.7143 11.7129 36.9756 11.8374C37.2904 11.9886 37.4241 12.365 37.2726 12.6763C37.1657 12.9016 36.937 13.035 36.7024 13.035L36.7054 13.038ZM19.3586 12.4362C19.0705 12.4362 18.8092 12.2376 18.7439 11.9441C18.6667 11.6032 18.8805 11.2682 19.222 11.1911C19.4982 11.1288 19.7744 11.0696 20.0565 11.0132C20.3981 10.945 20.7307 11.1644 20.802 11.5053C20.8703 11.8463 20.6505 12.1783 20.309 12.2494C20.0357 12.3058 19.7655 12.3621 19.4952 12.4243C19.4477 12.4362 19.4032 12.4392 19.3557 12.4392L19.3586 12.4362ZM33.5455 11.9055C33.495 11.9055 33.4415 11.8996 33.3911 11.8848C33.1327 11.8196 32.8684 11.7603 32.5981 11.704C32.2566 11.6358 32.0368 11.3008 32.1051 10.9599C32.1764 10.6189 32.509 10.3996 32.8506 10.4678C33.1357 10.527 33.4208 10.5923 33.6999 10.6605C34.0385 10.7464 34.2434 11.0873 34.1573 11.4253C34.086 11.7099 33.8276 11.9026 33.5455 11.9026V11.9055ZM22.673 11.8196C22.3671 11.8196 22.0968 11.5972 22.0493 11.283C21.9958 10.9391 22.2334 10.616 22.5779 10.5656C22.8571 10.5241 23.1392 10.4826 23.4213 10.444C23.7629 10.3966 24.0836 10.6397 24.1311 10.9836C24.1787 11.3275 23.9351 11.6447 23.5906 11.6921C23.3144 11.7306 23.0382 11.7692 22.768 11.8107C22.7353 11.8166 22.7027 11.8166 22.673 11.8166V11.8196ZM26.0199 11.4164C25.6962 11.4164 25.423 11.1703 25.3933 10.8443C25.3606 10.4974 25.619 10.1921 25.9635 10.1594C26.2546 10.1328 26.5397 10.112 26.8218 10.0942C27.1722 10.0764 27.4692 10.3373 27.49 10.6842C27.5108 11.031 27.2465 11.3304 26.899 11.3512C26.6288 11.369 26.3555 11.3868 26.0764 11.4134C26.0556 11.4134 26.0378 11.4134 26.017 11.4134L26.0199 11.4164ZM30.2312 11.3719C30.2133 11.3719 30.1985 11.3719 30.1807 11.3719C29.9134 11.3512 29.6402 11.3364 29.364 11.3245C29.0165 11.3097 28.7433 11.0162 28.7581 10.6693C28.773 10.3225 29.064 10.0527 29.4145 10.0646C29.7055 10.0764 29.9936 10.0942 30.2787 10.115C30.6262 10.1417 30.8875 10.444 30.8608 10.7909C30.834 11.1229 30.5578 11.3719 30.2312 11.3719Z" fill="#A1908D"/>
<path d="M22.2958 33.5404C23.7332 32.4969 25.5389 31.5572 27.4752 31.2963C32.9664 30.5641 35.4521 35.3962 32.1556 39.3094C30.7182 41.0317 27.9177 42.3628 25.1201 42.7304C22.6106 43.0713 22.4799 40.4596 24.44 40.2254C26.6882 39.9645 28.8086 39.1018 29.8807 37.8745C31.7903 35.7342 31.3449 33.2529 27.79 33.5404C26.1417 33.6709 24.2856 34.7677 23.1868 35.9417C22.7145 36.4367 22.5839 37.1957 21.6959 37.4299C20.5466 37.7441 19.6556 36.6205 19.8398 35.2895C20.0476 33.8013 20.4159 31.1392 20.8079 28.5808C20.0239 28.6579 19.2131 28.6342 18.3489 28.5037C16.4126 28.1895 16.6234 25.554 18.7142 26.0224C19.4477 26.1795 20.309 26.2062 21.1999 26.0491C21.4613 24.3771 21.7226 22.9423 21.9068 22.133C22.3255 20.3572 24.9152 21.1399 24.4163 22.7585C24.2321 23.3603 24.051 24.22 23.8401 25.1864C24.3093 24.9522 24.7815 24.6647 25.227 24.3504C27.0327 23.0727 28.678 25.6815 26.2457 26.8051C25.1468 27.3268 24.1787 27.7181 23.2907 28.0324C22.8719 30.3299 22.4799 32.6274 22.2958 33.5404Z" fill="#504341"/>
<path d="M60.205 38.4497C58.3786 37.4774 58.3518 35.2155 60.5703 34.3884C61.5207 34.0474 62.7383 34 63.9826 34.1927C63.9826 33.9022 63.9826 33.6324 63.9589 33.3893C63.7629 29.8378 63.5461 28.1362 63.5698 25.5808C63.5698 24.0719 65.8833 24.1697 65.8121 25.6045C65.7645 26.4079 65.7645 27.1609 65.7645 27.9406C66.3496 27.9168 66.8842 27.8427 67.4455 27.5255C68.7849 26.7725 70.1242 28.6431 68.7136 29.4465C68.0305 29.8349 67.2019 29.8586 66.4476 29.9564C66.2516 29.9801 66.0348 30.0039 65.815 30.0039C65.8388 30.9525 65.8893 31.9753 65.9368 33.1907C65.9605 33.6294 65.9368 34.1393 65.9368 34.6996C66.8634 35.0406 67.7157 35.503 68.3245 36.0366C69.7857 37.3025 68.179 39.3925 66.7891 37.9102C66.4476 37.5456 66.0348 37.2046 65.5953 36.9141C64.8409 38.4942 62.4769 39.6622 60.211 38.4468L60.205 38.4497ZM61.2296 35.9922C60.8138 36.1374 60.8643 36.6236 61.2059 36.8193C62.1087 37.3054 63.4243 37.0149 63.7391 36.0396C62.8363 35.7728 61.9364 35.7224 61.2296 35.9922Z" fill="#504341"/>
<path d="M90.2724 20.8819C88.348 21.1991 88.152 18.8631 89.8329 18.62C92.0514 18.3028 93.7323 17.6476 94.9499 16.5775C96.4111 15.2879 96.4853 13.9509 95.7547 13.1238C94.7064 11.9321 92.7819 11.9558 91.199 12.4182C89.4439 12.9519 87.8609 13.9272 86.2038 14.6802C84.5229 15.4598 83.5725 13.1979 85.1554 12.5398C86.7146 11.9083 88.8351 10.933 90.7595 10.4468C92.8057 9.93695 95.6092 9.91323 97.3139 11.686C99.3601 13.8027 98.5315 16.5033 96.316 18.3502C94.8549 19.5657 92.9304 20.4432 90.2724 20.879V20.8819Z" fill="#504341"/>
<path d="M120.974 23.384C119.614 21.712 122.177 20.3039 123.222 21.7921C124.348 23.384 125.524 25.7082 126.281 27.8752C127.692 26.8821 129.183 25.9424 130.885 25.0026C132.663 24.0095 134.024 26.5175 132.01 27.5343C129.343 28.8921 126.65 30.4069 124.583 32.156C121.993 34.3497 121.916 36.3063 123.956 37.2994C125.785 38.2125 129.527 37.5336 131.095 36.9585C133.293 36.1225 134.077 39.1256 131.749 39.7777C129.682 40.3529 125.316 40.8746 122.726 39.5702C118.961 37.6641 119.118 33.4367 123.353 30.069C123.614 29.8615 123.849 29.651 124.11 29.4701C123.43 27.4068 122.174 24.8485 120.971 23.387L120.974 23.384Z" fill="#504341"/>
<path d="M68.0817 92.0363C66.1989 89.9996 65.3346 86.9729 65.1268 83.6823C65.0228 82.1941 64.9694 81.7257 64.9961 80.7859C65.0495 79.1406 67.5858 78.8027 67.663 80.7593C67.7164 81.7761 67.6095 81.8294 67.663 83.0301C67.7669 85.7722 68.2659 88.3543 69.73 89.7654C70.4101 90.4176 70.7486 90.4977 71.3248 89.7121C71.6396 89.2674 72.0049 88.5885 72.189 88.1705C72.8958 86.6557 75.0668 87.7525 74.5678 89.1103C74.3065 89.8425 73.8343 90.6518 73.5492 91.1202C71.8742 93.8357 69.5488 93.6015 68.0847 92.0333L68.0817 92.0363ZM82.23 87.4413C81.8113 85.3543 80.7391 83.3414 79.3285 82.3779C78.0722 81.5152 79.4859 79.5853 81.0539 80.7593C82.9101 82.1437 84.7157 84.5953 84.9771 86.8158C85.185 88.7219 82.5983 89.2437 82.23 87.4413Z" fill="#FAF7F0"/>
<path d="M105.629 99.3111C104.126 99.5572 103.974 97.734 105.287 97.5443C107.018 97.2982 108.331 96.7853 109.281 95.9493C110.422 94.9414 110.481 93.8979 109.908 93.2516C109.091 92.3208 107.589 92.3415 106.35 92.7002C104.981 93.1182 103.743 93.8772 102.451 94.4671C101.138 95.0748 100.396 93.308 101.634 92.7951C102.852 92.3 104.506 91.5411 106.009 91.1617C107.606 90.7615 109.795 90.7437 111.126 92.1311C112.723 93.7823 112.076 95.8901 110.345 97.3338C109.204 98.2824 107.701 98.9672 105.626 99.3081L105.629 99.3111Z" fill="#FAF7F0"/>
<path d="M124.048 81.2246C124.82 80.3916 126.364 78.2957 127.169 76.9676C128.375 74.9932 130.599 76.5347 129.949 78.017C129.206 79.7127 127.692 81.779 126.489 83.199C124.603 85.4194 122.102 83.3235 124.048 81.2246ZM130.908 83.9697C129.239 83.1367 130.257 80.7325 132.114 81.5033C137.335 83.6318 138.077 79.9914 136.316 77.5249C135.481 76.3539 133.691 74.7501 133.01 73.9764C131.279 71.9724 133.907 70.7688 135.051 71.9397C136.224 73.1433 137.893 74.839 138.882 76.1968C143.084 81.9035 137.709 87.3018 130.911 83.9697H130.908ZM137.427 70.3656C135.758 70.7658 134.861 68.9159 136.221 68.1748C136.871 67.8369 136.963 67.5878 136.684 67.158C136.004 66.0167 134.706 65.2459 134.118 64.4751C133.005 62.9958 135.107 61.6381 136.375 62.9009C137.643 64.1668 140.64 66.0789 140.732 67.8665C140.794 68.7292 140.393 69.7164 138.909 69.9328C138.508 69.995 137.92 70.2411 137.427 70.3656ZM145.43 81.7167C144.688 79.4963 143.051 77.8925 142 77.184C140.423 76.1049 142 74.0979 143.732 75.1177C145.43 76.1345 147.316 77.6464 148.335 80.0536C149.386 82.4904 146.173 83.9401 145.43 81.7197V81.7167ZM145.739 73.0485C143.945 73.0485 142.493 71.5988 142.493 69.8112C142.493 68.0236 143.945 66.5414 145.739 66.5414C147.533 66.5414 149.015 68.0207 149.015 69.8112C149.015 71.6018 147.533 73.0485 145.739 73.0485ZM145.739 68.2074C144.875 68.2074 144.195 68.9486 144.195 69.8112C144.195 70.6739 144.875 71.3528 145.739 71.3528C146.603 71.3528 147.346 70.6739 147.346 69.8112C147.346 68.9486 146.603 68.2074 145.739 68.2074Z" fill="#504341"/>
<path d="M162.733 101.997C161.011 98.6143 158.483 94.7605 156.434 92.3563C154.474 90.0736 154.474 87.9658 156.791 85.5646C158.81 83.4598 161.1 81.2631 162.882 78.8618C164.248 77.0534 166.924 79.1583 165.525 80.8777C164.04 82.686 160.889 85.2681 159.048 87.1061C157.771 88.3808 157.711 89.2702 158.691 90.4886C161.664 94.1972 164.188 96.9839 165.644 100.159C166.564 102.145 163.684 103.897 162.73 101.997H162.733Z" fill="#504341"/>
<path d="M178.502 101.502C176.293 101.502 174.505 99.7173 174.505 97.5117C174.505 95.3061 176.293 93.5215 178.502 93.5215C180.712 93.5215 182.5 95.3061 182.5 97.5117C182.5 99.7173 180.712 101.502 178.502 101.502ZM178.502 94.8881C177.029 94.8881 175.838 96.0443 175.838 97.5117C175.838 98.9791 177.029 100.171 178.502 100.171C179.975 100.171 181.166 98.9821 181.166 97.5117C181.166 96.0413 179.975 94.8881 178.502 94.8881Z" fill="#504341"/>
</g>
<defs>
<clipPath id="clip0_316_714">
<rect width="182" height="105" fill="white" transform="translate(0.5)"/>
</clipPath>
</defs>
</svg>
